<svg id="eyk8trb2r1tk1" xmlns="http://www.w3.org/2000/svg" xmlns:xlink="http://www.w3.org/1999/xlink" viewBox="0 0 128 128" shape-rendering="geometricPrecision" text-rendering="geometricPrecision"><path id="eyk8trb2r1tk2" d="M75.701000,65.603000C73.367000,64.835000,70.007000,65,65.621000,65L48,65L48,88L66.844000,88C69.788000,88,71.856000,87.685000,73.047000,87.465000C75.146000,87.089000,76.901000,86.361000,78.311000,85.483000C79.720000,84.607000,80.879000,83.278000,81.789000,81.602000C82.697000,79.926000,83.152000,77.965000,83.152000,75.772000C83.152000,73.204000,82.494000,71.232000,81.177000,69.336000C79.861000,67.440000,78.036000,66.371000,75.701000,65.603000ZM73.282000,55.087000C75.599000,54.399000,77.346000,53.197000,78.521000,51.600000C79.697000,50.002000,80.284000,47.969000,80.284000,45.556000C80.284000,43.270000,79.735000,41.242000,78.638000,39.502000C77.541000,37.762000,75.976000,37.089000,73.939000,36.446000C71.902000,35.805000,68.409000,36,63.459000,36L48,36L48,56L64.587000,56C68.629000,56,71.526000,55.620000,73.282000,55.087000ZM126,18.625000C126,9.443000,118.557000,2,109.375000,2L17.625000,2C8.443000,2,1,9.443000,1,18.625000L1,110.375000C1,119.557000,8.443000,127,17.625000,127L109.375000,127C118.557000,127,126,119.557000,126,110.375000L126,18.625000ZM90.553000,84.745000C89.191000,87.518000,87.506000,89.656000,85.501000,91.160000C83.495000,92.664000,80.980000,93.940000,77.957000,94.708000C74.935000,95.477000,71.229000,96,66.844000,96L39,96L39,27L66.420000,27C71.684000,27,75.905000,27.609000,79.085000,29.002000C82.266000,30.397000,84.756000,32.499000,86.559000,35.397000C88.360000,38.295000,89.261000,41.304000,89.261000,44.468000C89.261000,47.413000,88.461000,50.176000,86.864000,52.776000C85.266000,55.378000,82.853000,57.470000,79.627000,59.068000C83.793000,60.290000,86.997000,62.372000,89.237000,65.316000C91.477000,68.261000,92.597000,71.738000,92.597000,75.748000C92.597000,78.975000,91.916000,81.973000,90.553000,84.745000Z" transform="matrix(0.71638735185562 0 0 0.71638735185562 18.50940315716836 17.79301580531274)" fill="rgb(91,66,130)" stroke="none" stroke-width="1"/><path id="eyk8trb2r1tk3" d="M2.282086,126.861806C2.254022,126.853441,2.213620,126.855238,2.160882,126.855238L1.383860,127.349461L1.949002,127.105753L2.175587,127.105753C2.210987,127.105753,2.235853,127.102322,2.250174,127.099926C2.275413,127.095831,2.296516,127.087901,2.313470,127.078338C2.330412,127.068797,2.344348,127.054321,2.355290,127.036066C2.366208,127.017811,2.371679,126.996452,2.371679,126.972566C2.371679,126.944596,2.363767,126.923117,2.347931,126.902466C2.332108,126.881815,2.310163,126.870171,2.282086,126.861806ZM1.583764,127.349461C1.611624,127.341967,2.301866,126.726681,2.315995,126.709286C2.330136,126.691881,2.337194,126.669737,2.337194,126.643455C2.337194,126.618556,2.330592,126.596467,2.317402,126.577515C2.304211,126.558563,2.285393,126.551233,2.260900,126.544229C2.236406,126.537248,1.443380,127.349461,1.383860,127.349461L1.383860,127.530539L1.383860,127.530539L1.583764,127.349461C1.632366,127.349461,1.562649,127.355266,1.583764,127.349461ZM1.583764,127.349461C1.583764,127.249451,1.576185,127.468247,1.583764,127.349461L1.583764,127.530539C1.388641,127.451370,1.515825,127.743181,1.383860,127.530539L1.383860,127.349461C1.383860,127.449470,1.473357,127.530539,1.583764,127.530539L1.383860,127.530539C1.657467,127.678014,1.590754,127.596945,1.383860,127.530539L1.583764,127.349461ZM1.949002,127.349461C1.932625,127.379664,2.424033,127.123790,2.399924,127.140172C2.375804,127.156553,2.345563,127.170451,2.309213,127.178816C2.272876,127.187192,2.228314,127.192889,2.175587,127.192889L1.383860,127.530539L1.383860,127.530539L1.583764,127.192889C1.647060,127.192889,2.284539,126.447977,2.322777,126.463150C2.361026,126.478344,2.390966,126.501239,2.412646,126.532804C2.434302,126.564369,2.445136,126.597143,2.445136,126.631605C2.445136,126.663681,1.970260,127.170426,2.416314,126.722095C1.973501,127.314222,1.529303,127.345276,1.383860,127.349461C1.584182,127.338088,1.670736,127.509069,2.444847,126.858680C1.641287,127.253354,1.472435,127.413621,1.949002,127.349461C1.987216,127.344316,1.993748,126.864000,1.949002,127.349461Z" transform="matrix(0.71638735185562 0 0 0.71638735185562 111.13003316716865 20.88529605531273)" fill="rgb(91,66,130)" stroke="none" stroke-width="1"/><path id="eyk8trb2r1tk4" d="M2.282086,126.861806C2.254022,126.853441,2.213620,126.855238,2.160882,126.855238L1.383860,127.349461L1.949002,127.105753L2.175587,127.105753C2.210987,127.105753,2.235853,127.102322,2.250174,127.099926C2.275413,127.095831,2.296516,127.087901,2.313470,127.078338C2.330412,127.068797,2.344348,127.054321,2.355290,127.036066C2.366208,127.017811,2.371679,126.996452,2.371679,126.972566C2.371679,126.944596,2.363767,126.923117,2.347931,126.902466C2.332108,126.881815,2.310163,126.870171,2.282086,126.861806ZM1.583764,127.349461C1.611624,127.341967,2.301866,126.726681,2.315995,126.709286C2.330136,126.691881,2.337194,126.669737,2.337194,126.643455C2.337194,126.618556,2.330592,126.596467,2.317402,126.577515C2.304211,126.558563,2.285393,126.551233,2.260900,126.544229C2.236406,126.537248,1.443380,127.349461,1.383860,127.349461L1.383860,127.530539L1.383860,127.530539L1.583764,127.349461C1.632366,127.349461,1.562649,127.355266,1.583764,127.349461ZM1.583764,127.349461C1.583764,127.249451,1.576185,127.468247,1.583764,127.349461L1.583764,127.530539C1.388641,127.451370,1.515825,127.743181,1.383860,127.530539L1.383860,127.349461C1.383860,127.449470,1.473357,127.530539,1.583764,127.530539L1.383860,127.530539C1.657467,127.678014,1.590754,127.596945,1.383860,127.530539L1.583764,127.349461ZM1.949002,127.349461C1.932625,127.379664,2.424033,127.123790,2.399924,127.140172C2.375804,127.156553,2.345563,127.170451,2.309213,127.178816C2.272876,127.187192,2.228314,127.192889,2.175587,127.192889L1.383860,127.530539L1.383860,127.530539L1.583764,127.192889C1.647060,127.192889,2.284539,126.447977,2.322777,126.463150C2.361026,126.478344,2.390966,126.501239,2.412646,126.532804C2.434302,126.564369,2.445136,126.597143,2.445136,126.631605C2.445136,126.663681,1.970260,127.170426,2.416314,126.722095C1.973501,127.314222,1.529303,127.345276,1.383860,127.349461C1.584182,127.338088,1.670736,127.509069,2.444847,126.858680C1.641287,127.253354,1.472435,127.413621,1.949002,127.349461C1.987216,127.344316,1.993748,126.864000,1.949002,127.349461Z" transform="matrix(0.71638735185562 0 0 0.71638735185562 13.11596416716840 -75.76530769468729)" fill="rgb(91,66,130)" stroke="none" stroke-width="1"/></svg>