<svg id="e2elj15jid4c1" xmlns="http://www.w3.org/2000/svg" xmlns:xlink="http://www.w3.org/1999/xlink" viewBox="0 0 1478.201000 1195.111000" shape-rendering="geometricPrecision" text-rendering="geometricPrecision"><path id="e2elj15jid4c2" d="M265.747000,900.102000C263.471000,900.102000,261.194000,900.319000,258.938000,900.319000C212.963000,902.769000,181.955000,923.002000,163.825000,962.514000C148.319000,998.249000,150.012000,1044.960000,163.999000,1080.914000C180.264000,1116.045000,206.546000,1134.586000,250.415000,1141.589000C259.697000,1143.109000,265.921000,1148.205000,283.898000,1169.195000L306.018000,1195.110000L346.136000,1195.110000L319.460000,1168.218000C304.714000,1153.473000,292.787000,1140.634000,292.787000,1139.506000C292.787000,1138.379000,298.428000,1135.907000,305.256000,1133.826000C327.766000,1127.014000,346.459000,1109.624000,359.535000,1082.972000C370.118000,1061.570000,371.637000,1054.954000,373.154000,1028.326000C377.123000,949.066000,335.334000,899.513000,265.745000,900.079000L265.747000,900.102000ZM300.920000,1107.372000C281.403000,1116.825000,253.063000,1118.712000,234.564000,1111.925000C215.437000,1104.900000,196.918000,1085.036000,188.589000,1062.548000C179.330000,1037.957000,180.652000,992.592000,191.235000,972.162000C208.258000,939.634000,230.769000,924.672000,263.665000,924.672000C312.457000,924.672000,340.214000,954.556000,343.836000,1010.720000C346.699000,1057.605000,330.998000,1092.778000,300.941000,1107.352000L300.920000,1107.372000ZM993.945000,967.804000C977.117000,967.804000,964.236000,974.615000,955.560000,988.035000L948.751000,998.662000L948.751000,971.034000L919.628000,971.034000L919.628000,1136.712000L948.732000,1136.712000L948.732000,1083.756000C948.732000,1035.332000,949.336000,1029.672000,956.103000,1016.421000C965.429000,998.249000,981.474000,989.187000,996.982000,993.524000L1007.390000,996.560000L1007.390000,967.848000L993.945000,967.848000L993.945000,967.804000ZM822.847000,966.285000C817.142000,966.285000,811.091000,967.045000,805.066000,968.369000C766.095000,978.559000,744.128000,1015.858000,745.472000,1054.242000C745.472000,1086.381000,751.716000,1102.448000,767.224000,1119.299000C798.994000,1145.364000,827.726000,1147.445000,866.499000,1133.460000C873.114000,1130.641000,880.313000,1127.388000,880.313000,1127.388000L880.313000,1101.323000L866.499000,1108.479000C835.120000,1122.140000,811.483000,1122.140000,792.550000,1106.049000C780.474000,1093.753000,775.159000,1079.007000,772.710000,1062.181000L890.136000,1062.181000L890.136000,1039.842000C890.136000,994.303000,862.726000,965.548000,822.823000,966.285000L822.847000,966.285000ZM775.355000,1038.932000C775.355000,1038.932000,779.693000,1010.525000,795.783000,999.378000C803.527000,993.912000,812.416000,991.268000,821.111000,991.268000C829.830000,991.268000,838.525000,994.086000,845.703000,999.574000C860.451000,1010.915000,862.922000,1038.717000,862.922000,1038.717000L775.356000,1038.717000L775.356000,1038.932000L775.355000,1038.932000ZM73.244000,1009.051000C41.671000,989.923000,27.662000,976.130000,29.375000,959.866000C34.275000,914.869000,89.878000,921.093000,120.670000,938.117000L120.889000,907.845000C120.889000,907.845000,103.865000,900.472000,79.468000,900.081000C42.039000,899.517000,17.838000,911.790000,6.498000,936.772000C-10.158000,973.637000,4.590000,1001.437000,57.894000,1032.449000C87.819000,1049.861000,101.046000,1064.977000,101.046000,1081.457000C101.046000,1115.504000,59.996000,1127.388000,17.645000,1106.027000C8.929000,1101.690000,1.555000,1098.068000,1.165000,1098.068000C-0.354000,1107.719000,0.429000,1130.813000,0.429000,1130.813000C0.429000,1130.813000,13.441000,1136.279000,32.956000,1140.049000C81.356000,1149.699000,125.401000,1126.995000,129.564000,1090.130000C133.186000,1055.521000,120.671000,1037.369000,73.246000,1009.026000L73.244000,1009.051000ZM1251.698000,965.896000C1246.016000,965.896000,1239.987000,966.676000,1233.698000,967.999000C1194.774000,978.191000,1172.848000,1015.491000,1174.344000,1053.875000C1174.344000,1085.970000,1180.569000,1101.886000,1196.073000,1118.713000C1227.844000,1144.802000,1256.577000,1146.904000,1295.546000,1132.897000C1302.138000,1130.079000,1309.316000,1126.871000,1309.316000,1126.871000L1309.316000,1100.762000L1295.525000,1107.959000C1264.082000,1121.578000,1240.443000,1121.578000,1221.578000,1105.488000C1209.433000,1093.214000,1204.164000,1078.641000,1201.713000,1061.617000L1318.945000,1061.617000L1318.945000,1039.281000C1318.945000,993.960000,1291.533000,965.182000,1251.632000,965.942000L1251.698000,965.896000ZM1204.206000,1038.542000C1204.206000,1038.542000,1208.587000,1010.177000,1224.655000,998.813000C1232.376000,993.328000,1241.266000,990.681000,1249.962000,990.681000C1258.636000,990.681000,1267.376000,993.500000,1274.556000,999.008000C1289.302000,1010.350000,1291.775000,1038.346000,1291.775000,1038.346000L1204.230000,1038.346000L1204.206000,1038.542000ZM670.397000,1009.419000C638.824000,990.336000,624.857000,976.499000,626.549000,960.234000C631.449000,915.214000,687.053000,921.461000,717.845000,938.485000L718.063000,908.213000C718.063000,908.213000,701.039000,900.839000,676.642000,900.491000C639.213000,899.928000,615.012000,912.202000,603.651000,937.183000C587.018000,974.047000,601.959000,1001.849000,655.088000,1032.860000C684.972000,1050.253000,698.199000,1065.172000,698.199000,1081.652000C698.199000,1115.699000,657.170000,1127.778000,614.818000,1106.221000C606.144000,1101.884000,598.772000,1098.305000,598.338000,1098.305000C596.819000,1107.954000,597.602000,1131.051000,597.602000,1131.051000C597.602000,1131.051000,610.460000,1136.321000,629.912000,1140.288000C678.357000,1149.960000,722.422000,1127.276000,726.565000,1090.411000C730.165000,1055.974000,717.674000,1037.824000,670.398000,1009.459000L670.398000,1009.419000ZM1422.818000,967.414000C1405.990000,967.414000,1392.959000,974.243000,1384.435000,987.668000L1377.624000,998.250000L1377.624000,970.667000L1348.501000,970.667000L1348.501000,1136.300000L1377.603000,1136.300000L1377.603000,1083.346000C1377.603000,1034.943000,1378.187000,1029.261000,1384.978000,1016.033000C1394.302000,997.883000,1410.347000,988.798000,1425.853000,993.155000L1436.261000,996.190000L1436.261000,967.415000L1422.818000,967.415000ZM438.797000,1008.464000L438.797000,902.941000L409.436000,902.941000L409.436000,1136.669000L532.914000,1136.669000L532.914000,1109.065000L438.798000,1109.065000L438.798000,1008.464000ZM1117.812000,1041.360000L1093.611000,1104.335000L1070.341000,1041.013000L1046.704000,970.840000L1016.649000,970.840000C1036.124000,1026.052000,1057.307000,1082.216000,1078.669000,1136.669000C1087.929000,1136.885000,1097.210000,1136.669000,1106.468000,1136.669000L1139.150000,1054.611000L1172.437000,970.861000L1143.705000,970.861000C1143.705000,970.861000,1131.017000,1004.127000,1117.791000,1041.382000L1117.812000,1041.360000ZM506.455000,839.251000C511.183000,839.251000,515.129000,837.735000,518.382000,834.482000C521.590000,831.271000,523.282000,827.498000,523.282000,822.771000C523.282000,818.043000,521.590000,814.096000,518.382000,811.060000C515.129000,808.025000,511.377000,806.505000,506.671000,806.505000C501.902000,806.505000,497.954000,808.025000,494.744000,811.233000C491.492000,814.444000,490.017000,818.391000,490.017000,822.945000C490.017000,827.716000,491.536000,831.661000,494.744000,834.656000C497.781000,837.690000,501.728000,839.209000,506.455000,839.209000L506.455000,839.251000ZM496.047000,812.362000C498.865000,809.544000,502.292000,808.241000,506.672000,808.241000C510.793000,808.241000,514.220000,809.544000,517.083000,812.362000C519.902000,815.181000,521.420000,818.607000,521.420000,822.771000C521.420000,826.934000,519.902000,830.535000,517.083000,833.353000C514.221000,836.170000,510.793000,837.516000,506.672000,837.516000C502.487000,837.516000,499.082000,836.215000,496.264000,833.353000C493.445000,830.535000,491.927000,826.934000,491.927000,822.771000C491.927000,818.607000,493.228000,815.182000,496.047000,812.362000ZM503.050000,824.290000L504.958000,824.290000C506.304000,824.290000,507.626000,825.590000,508.753000,828.063000L511.032000,833.179000L514.609000,833.179000L511.791000,827.496000C510.642000,825.221000,509.515000,823.898000,508.191000,823.527000C509.861000,823.137000,511.183000,822.574000,512.138000,821.445000C513.090000,820.471000,513.438000,819.147000,513.438000,817.650000C513.438000,815.916000,512.896000,814.616000,511.748000,813.661000C510.446000,812.577000,508.364000,811.992000,505.674000,811.992000L499.648000,811.992000L499.648000,833.179000L502.683000,833.179000L502.683000,824.288000L503.050000,824.290000ZM503.050000,814.444000L505.697000,814.444000C507.605000,814.444000,508.950000,814.834000,509.687000,815.397000C510.403000,815.961000,510.598000,816.700000,510.598000,818.043000C510.598000,820.493000,509.078000,821.644000,506.261000,821.644000L503.009000,821.644000L503.009000,814.444000L503.050000,814.444000ZM18.032000,822.402000C18.032000,815.029000,17.816000,809.544000,17.642000,806.312000L17.816000,806.312000C18.574000,810.126000,19.507000,812.969000,20.266000,814.855000L48.456000,877.830000L53.184000,877.830000L81.374000,814.292000C82.135000,812.559000,82.894000,809.955000,83.826000,806.333000L84.042000,806.333000C83.479000,812.623000,83.284000,818.087000,83.284000,822.445000L83.284000,878.026000L92.932000,878.026000L92.932000,795.404000L80.832000,795.404000L54.919000,852.870000C53.964000,855.146000,52.641000,858.553000,50.950000,863.063000L50.558000,863.063000C49.995000,860.829000,48.672000,857.424000,46.786000,853.260000L21.456000,795.207000L8.598000,795.207000L8.598000,877.828000L17.879000,877.828000L17.879000,822.443000L18.032000,822.402000ZM114.077000,822.556000L122.406000,822.556000L122.406000,874.014000L114.077000,874.014000L114.077000,822.556000ZM118.241000,803.688000C119.977000,803.688000,121.451000,803.101000,122.578000,801.954000C123.728000,800.825000,124.488000,799.351000,124.488000,797.617000C124.488000,795.925000,123.923000,794.406000,122.601000,793.280000C121.430000,792.130000,119.933000,791.543000,118.220000,791.543000C116.530000,791.543000,115.012000,792.130000,113.882000,793.280000C112.736000,794.406000,111.975000,795.925000,111.975000,797.617000C111.975000,799.504000,112.561000,800.825000,113.882000,801.954000C115.186000,803.101000,116.529000,803.688000,118.220000,803.688000L118.241000,803.688000ZM181.781000,875.143000L181.781000,866.077000C177.226000,869.482000,172.325000,871.175000,167.251000,871.175000C161.181000,871.175000,156.256000,869.094000,152.656000,865.105000C149.079000,861.158000,147.171000,855.669000,147.171000,848.839000C147.171000,841.683000,149.079000,835.999000,153.025000,831.662000C156.820000,827.499000,161.744000,825.417000,167.773000,825.417000C172.695000,825.417000,177.420000,826.937000,181.782000,829.974000L181.782000,820.324000C177.814000,818.242000,173.282000,817.287000,168.163000,817.287000C158.707000,817.287000,151.336000,820.324000,145.828000,826.181000C140.362000,832.035000,137.543000,839.994000,137.543000,849.601000C137.543000,858.144000,139.993000,865.323000,145.091000,870.810000C150.403000,876.447000,157.193000,879.310000,165.519000,879.310000C171.957000,879.132000,177.226000,877.787000,181.781000,875.143000ZM205.612000,847.710000C205.612000,840.922000,207.130000,835.437000,209.949000,831.661000C212.596000,828.258000,215.804000,826.545000,219.599000,826.545000C222.809000,826.545000,225.085000,827.130000,226.754000,828.453000L226.754000,818.607000C225.454000,818.044000,223.567000,817.849000,221.117000,817.849000C217.712000,817.849000,214.678000,818.995000,212.010000,821.102000C209.191000,823.333000,206.936000,826.740000,205.613000,831.077000L205.397000,831.077000L205.397000,818.997000L195.964000,818.997000L195.964000,877.982000L205.418000,877.982000L205.418000,847.710000L205.612000,847.710000ZM259.891000,879.153000C268.783000,879.153000,275.939000,876.290000,281.251000,870.610000C286.541000,864.969000,289.187000,857.381000,289.187000,847.924000C289.187000,838.277000,286.760000,830.903000,281.815000,825.414000C276.915000,819.931000,270.104000,817.282000,261.212000,817.282000C252.320000,817.282000,245.164000,819.929000,239.852000,825.046000C234.171000,830.687000,231.178000,838.645000,231.178000,848.859000C231.178000,857.750000,233.607000,865.124000,238.726000,870.610000C244.016000,876.290000,251.021000,879.131000,259.891000,879.131000L259.891000,879.153000ZM246.446000,831.098000C250.046000,827.303000,254.775000,825.415000,260.628000,825.415000C266.702000,825.415000,271.255000,827.303000,274.638000,831.098000C278.042000,835.067000,279.735000,840.728000,279.735000,848.295000C279.735000,855.493000,278.216000,861.154000,275.006000,864.949000C271.798000,868.918000,267.070000,871.020000,260.823000,871.020000C254.752000,871.020000,250.046000,868.916000,246.446000,864.949000C242.869000,860.959000,241.155000,855.493000,241.155000,848.295000C240.787000,841.139000,242.674000,835.285000,246.446000,831.098000ZM330.587000,874.014000C334.186000,870.806000,336.096000,866.859000,336.096000,861.912000C336.096000,857.575000,334.576000,853.976000,331.758000,851.135000C329.458000,848.860000,325.904000,846.798000,320.764000,844.716000C316.208000,842.810000,313.390000,841.116000,311.871000,839.793000C310.354000,838.276000,309.421000,836.391000,309.421000,833.722000C309.421000,831.272000,310.376000,829.385000,312.242000,827.867000C314.150000,826.351000,316.579000,825.614000,319.832000,825.614000C324.928000,825.614000,329.286000,826.957000,333.275000,829.799000L333.275000,820.343000C329.459000,818.437000,325.317000,817.526000,320.589000,817.526000C314.518000,817.526000,309.400000,819.197000,305.625000,822.425000C301.656000,825.637000,299.771000,829.800000,299.771000,834.699000C299.771000,839.036000,301.071000,842.637000,303.542000,845.281000C305.624000,847.537000,309.183000,849.837000,314.125000,851.895000C318.854000,853.978000,322.063000,855.863000,323.775000,857.380000C325.466000,858.900000,326.225000,860.785000,326.225000,863.021000C326.225000,868.527000,322.453000,871.370000,315.079000,871.370000C309.397000,871.370000,304.303000,869.504000,299.746000,865.732000L299.746000,875.921000C303.867000,878.396000,308.812000,879.522000,314.276000,879.522000C321.281000,879.154000,326.766000,877.441000,330.540000,874.036000L330.587000,874.014000ZM375.606000,817.284000C366.713000,817.284000,359.558000,819.931000,354.245000,825.048000C348.607000,830.689000,345.571000,838.647000,345.571000,848.861000C345.571000,857.752000,348.023000,865.126000,353.118000,870.612000C358.431000,876.292000,365.413000,879.133000,374.305000,879.133000C383.412000,879.133000,390.353000,876.272000,395.665000,870.588000C400.978000,864.951000,403.623000,857.361000,403.623000,847.905000C403.623000,838.255000,401.151000,830.883000,396.249000,825.396000C391.134000,819.909000,384.322000,817.263000,375.648000,817.263000L375.606000,817.284000ZM393.951000,848.296000C393.951000,855.494000,392.433000,861.155000,389.224000,864.950000C386.014000,868.919000,381.286000,871.021000,375.040000,871.021000C368.966000,871.021000,364.262000,868.917000,360.661000,864.950000C357.084000,860.960000,355.371000,855.494000,355.371000,848.296000C355.371000,840.706000,357.259000,834.852000,361.054000,830.903000C364.630000,827.130000,369.360000,825.221000,375.236000,825.221000C381.090000,825.221000,385.797000,827.128000,389.200000,830.903000C392.237000,835.066000,393.929000,840.727000,393.929000,848.296000L393.951000,848.296000ZM419.498000,877.809000L428.931000,877.809000L428.931000,826.741000L442.744000,826.741000L442.744000,818.803000L428.930000,818.803000L428.930000,809.695000C428.930000,801.413000,432.138000,797.249000,438.775000,797.249000C441.009000,797.249000,443.286000,797.812000,444.978000,798.767000L444.978000,790.246000C443.286000,789.487000,441.009000,789.314000,438.166000,789.314000C433.071000,789.314000,428.908000,790.833000,425.502000,794.041000C421.533000,797.814000,419.431000,802.715000,419.431000,809.353000L419.431000,819.025000L409.453000,819.025000L409.453000,826.961000L419.431000,826.961000L419.431000,877.837000L419.498000,877.809000ZM458.248000,861.718000C458.248000,873.256000,463.346000,879.132000,473.754000,879.132000C477.528000,879.132000,480.368000,878.526000,482.645000,877.181000L482.645000,869.071000C480.911000,870.373000,478.850000,870.981000,476.574000,870.981000C473.366000,870.981000,471.110000,870.219000,469.786000,868.506000C468.441000,866.817000,467.683000,863.952000,467.683000,860.005000L467.683000,826.719000L482.644000,826.719000L482.644000,818.781000L467.683000,818.781000L467.683000,801.391000C464.430000,802.518000,461.243000,803.473000,458.227000,804.425000L458.227000,818.780000L448.035000,818.780000L448.035000,826.718000L458.227000,826.718000L458.227000,861.697000L458.248000,861.718000ZM1473.128000,970.448000C1469.919000,967.414000,1466.124000,965.895000,1461.419000,965.895000C1456.649000,965.895000,1452.700000,967.414000,1449.491000,970.666000C1446.282000,973.854000,1444.762000,977.821000,1444.762000,982.377000C1444.762000,987.105000,1446.282000,991.052000,1449.467000,994.086000C1452.678000,997.122000,1456.623000,998.642000,1461.395000,998.642000C1466.100000,998.642000,1470.069000,997.122000,1473.323000,993.913000C1476.511000,990.660000,1478.202000,986.909000,1478.202000,982.204000C1478.028000,977.433000,1476.315000,973.485000,1473.106000,970.450000L1473.128000,970.448000ZM1471.611000,992.786000C1468.791000,995.604000,1465.365000,996.905000,1461.201000,996.905000C1457.082000,996.905000,1453.656000,995.604000,1450.793000,992.786000C1447.975000,989.923000,1446.455000,986.345000,1446.455000,982.159000C1446.455000,978.038000,1447.756000,974.614000,1450.619000,971.751000C1453.437000,968.934000,1456.844000,967.630000,1461.201000,967.630000C1465.322000,967.630000,1468.750000,968.934000,1471.611000,971.751000C1474.429000,974.614000,1475.947000,978.038000,1475.947000,982.159000C1475.947000,986.541000,1474.646000,989.923000,1471.611000,992.786000ZM1463.109000,983.135000C1464.800000,982.745000,1466.146000,981.986000,1467.078000,981.054000C1468.033000,980.077000,1468.381000,978.753000,1468.381000,977.239000C1468.381000,975.547000,1467.838000,974.202000,1466.690000,973.270000C1465.389000,972.185000,1463.286000,971.599000,1460.620000,971.599000L1454.591000,971.599000L1454.591000,992.763000L1457.628000,992.763000L1457.628000,983.872000L1459.513000,983.872000C1460.816000,983.872000,1462.117000,985.172000,1463.286000,987.645000L1465.540000,992.741000L1469.142000,992.741000L1466.324000,987.058000C1465.347000,984.586000,1464.219000,983.457000,1463.072000,983.088000L1463.109000,983.135000ZM1461.027000,981.228000L1457.775000,981.228000L1457.775000,974.073000L1460.443000,974.073000C1462.330000,974.073000,1463.652000,974.418000,1464.412000,975.005000C1465.170000,975.568000,1465.344000,976.306000,1465.344000,977.651000C1465.344000,980.101000,1463.826000,981.230000,1461.008000,981.230000L1461.027000,981.228000ZM933.443000,816.353000L936.089000,816.353000L936.089000,795.166000L943.091000,795.166000L943.091000,792.520000L926.439000,792.520000L926.439000,795.166000L933.445000,795.166000L933.445000,816.353000L933.443000,816.353000ZM949.490000,800.436000C949.490000,798.374000,949.490000,796.683000,949.338000,795.731000C949.512000,796.857000,949.902000,797.618000,950.076000,798.181000L958.209000,816.353000L959.510000,816.353000L967.662000,798.006000C967.881000,797.443000,968.055000,796.705000,968.422000,795.731000C968.248000,797.618000,968.248000,799.132000,968.248000,800.284000L968.248000,816.332000L971.068000,816.332000L971.068000,792.520000L967.662000,792.520000L960.291000,808.958000C960.117000,809.545000,959.529000,810.692000,959.162000,811.995000L958.945000,811.995000C958.793000,811.234000,958.404000,810.476000,957.861000,809.177000L950.488000,792.522000L946.672000,792.522000L946.672000,816.376000L949.338000,816.376000L949.338000,800.459000L949.490000,800.436000Z" transform="matrix(1 0 0 1 -0.13006117999987 -394.65649999999982)" fill="rgb(35,31,31)" stroke="none" stroke-width="1"/></svg>