<svg id="svg" version="1.1" xmlns="http://www.w3.org/2000/svg" xmlns:xlink="http://www.w3.org/1999/xlink" width="400" height="269.1823899371069" viewBox="0, 0, 400,269.1823899371069"><g id="svgg"><path id="path0" d="M242.761 62.670 C 241.249 62.775,241.075 62.847,241.055 63.380 C 241.017 64.377,240.896 64.953,240.164 67.609 C 237.643 76.764,237.532 77.702,238.703 79.972 C 240.016 82.518,241.097 83.611,243.372 84.690 C 245.687 85.789,245.672 85.747,244.734 88.620 C 244.050 90.715,243.521 92.789,242.673 96.700 C 242.400 97.960,241.990 99.653,241.762 100.463 C 241.533 101.273,241.349 102.303,241.351 102.752 C 241.353 103.201,241.117 104.357,240.826 105.320 C 240.178 107.467,239.553 109.964,239.041 112.458 C 238.827 113.495,238.457 114.944,238.218 115.678 C 237.305 118.483,237.377 119.956,238.467 120.787 C 240.700 122.490,241.725 121.535,243.070 116.498 C 243.584 114.572,244.328 111.845,244.724 110.438 C 246.074 105.641,246.421 104.375,248.463 96.790 C 250.863 87.874,250.778 88.736,249.413 87.185 C 248.145 85.745,248.134 85.754,251.378 85.589 C 254.485 85.431,254.594 85.268,256.414 78.114 C 257.984 71.943,258.375 70.451,258.904 68.600 C 259.192 67.589,259.498 65.939,259.582 64.934 L 259.735 63.107 258.958 62.938 C 257.987 62.727,245.039 62.513,242.761 62.670 M260.688 62.675 C 260.951 62.780,260.918 62.913,260.553 63.207 C 260.103 63.570,260.110 63.578,260.652 63.317 C 261.083 63.108,261.277 63.122,261.392 63.369 C 261.516 63.634,261.581 63.634,261.707 63.365 C 261.793 63.179,261.994 63.107,262.152 63.205 C 262.318 63.308,262.362 63.256,262.255 63.084 C 262.154 62.919,261.905 62.848,261.702 62.926 C 261.500 63.003,261.254 62.938,261.156 62.779 C 261.058 62.621,260.834 62.501,260.658 62.513 C 260.440 62.527,260.450 62.579,260.688 62.675 M262.804 65.123 C 262.976 65.232,263.170 65.685,263.235 66.129 C 263.343 66.861,263.357 66.842,263.394 65.926 C 263.426 65.127,263.336 64.917,262.963 64.920 C 262.657 64.923,262.601 64.994,262.804 65.123 M194.878 108.528 C 193.080 108.970,187.387 112.404,184.845 114.579 C 184.066 115.247,183.036 116.066,182.556 116.399 C 178.783 119.022,172.933 124.896,172.434 126.562 C 171.462 129.806,172.485 131.600,175.250 131.500 C 176.159 131.467,177.178 131.542,177.515 131.667 C 181.920 133.296,196.961 119.200,194.692 115.567 C 194.426 115.141,194.470 114.837,194.931 113.887 C 197.443 108.719,197.435 107.900,194.878 108.528 M218.586 116.664 C 216.808 117.553,214.929 118.617,214.411 119.029 C 213.892 119.441,212.937 120.112,212.288 120.521 C 211.638 120.929,210.689 121.646,210.178 122.113 C 209.667 122.581,208.769 123.287,208.183 123.684 C 204.854 125.934,198.399 132.311,197.695 134.045 C 197.012 135.727,197.069 137.862,197.817 138.689 C 198.406 139.340,204.793 139.786,205.833 139.249 C 212.771 135.666,221.898 125.387,220.880 122.302 C 220.487 121.114,220.840 119.873,222.096 118.025 C 222.814 116.969,222.955 115.857,222.438 115.340 C 222.011 114.913,222.261 114.827,218.586 116.664 M236.437 125.782 C 234.262 127.492,230.398 140.759,231.979 141.086 C 233.573 141.415,238.640 135.536,240.046 131.726 C 241.575 127.584,239.174 123.629,236.437 125.782 M220.096 147.226 C 218.071 148.090,211.730 153.308,210.638 155.008 C 210.349 155.457,209.686 156.414,209.164 157.134 C 207.203 159.840,208.299 162.770,211.044 162.155 C 211.927 161.957,212.439 161.965,212.845 162.182 C 215.327 163.510,224.464 157.388,226.799 152.833 C 227.019 152.405,227.563 151.588,228.008 151.018 L 228.818 149.983 228.184 149.470 C 227.835 149.187,227.158 148.956,226.680 148.956 C 226.022 148.956,225.738 148.798,225.514 148.305 C 225.280 147.791,224.887 147.591,223.652 147.352 C 222.792 147.186,221.845 147.001,221.549 146.942 C 221.253 146.884,220.599 147.011,220.096 147.226 " stroke="none" fill="#dc78b5" fill-rule="evenodd"></path><path id="path1" d="M240.269 62.694 C 240.269 62.805,240.905 62.861,241.683 62.819 C 244.230 62.680,244.482 62.573,242.357 62.532 C 241.209 62.510,240.269 62.582,240.269 62.694 M255.835 62.691 C 256.767 62.744,258.222 62.744,259.068 62.690 C 259.914 62.637,259.152 62.594,257.374 62.594 C 255.596 62.595,254.904 62.639,255.835 62.691 M237.662 63.103 C 237.050 63.376,236.657 64.153,236.352 65.690 C 236.214 66.385,236.251 66.550,236.511 66.389 C 236.754 66.239,236.784 66.287,236.614 66.558 C 236.484 66.766,236.375 67.118,236.371 67.340 C 236.367 67.562,236.212 67.714,236.027 67.677 C 235.842 67.640,235.675 67.731,235.657 67.879 C 235.590 68.414,235.544 68.558,235.334 68.889 C 235.216 69.074,235.187 69.334,235.268 69.466 C 235.350 69.599,235.236 70.219,235.015 70.846 C 234.643 71.903,234.646 71.958,235.061 71.615 C 235.465 71.282,235.479 71.302,235.202 71.822 C 235.033 72.139,234.867 72.772,234.832 73.229 C 234.797 73.686,234.606 74.122,234.407 74.199 C 234.209 74.275,234.120 74.218,234.210 74.072 C 234.517 73.575,234.591 72.709,234.311 72.882 C 234.161 72.975,234.103 73.115,234.181 73.194 C 234.260 73.272,234.195 73.579,234.037 73.874 C 233.820 74.280,233.838 74.469,234.114 74.643 C 234.383 74.813,234.390 74.875,234.141 74.878 C 233.658 74.884,233.727 75.696,234.261 76.287 C 234.962 77.061,234.735 80.543,234.013 80.097 C 233.840 79.990,233.947 80.318,234.252 80.827 C 234.557 81.335,234.959 81.716,235.146 81.672 C 235.348 81.626,235.425 81.755,235.335 81.989 C 235.252 82.207,235.358 82.530,235.572 82.707 C 235.785 82.884,235.960 82.964,235.960 82.884 C 235.960 82.804,236.414 83.157,236.970 83.669 C 237.525 84.180,238.162 84.763,238.384 84.964 C 238.606 85.165,239.212 85.518,239.731 85.748 C 241.159 86.382,242.009 87.204,241.664 87.619 C 241.508 87.808,241.390 88.323,241.402 88.763 C 241.415 89.204,241.339 89.867,241.234 90.237 C 241.102 90.699,241.122 90.793,241.300 90.537 C 241.506 90.239,241.594 90.279,241.739 90.736 C 241.973 91.474,241.728 91.852,241.017 91.852 C 240.704 91.852,240.529 91.932,240.626 92.029 C 240.724 92.127,240.690 92.343,240.552 92.509 C 240.414 92.676,240.242 93.535,240.171 94.419 C 240.033 96.120,239.793 96.998,239.390 97.269 C 239.115 97.454,238.884 99.263,238.826 101.680 C 238.795 102.983,238.697 103.310,238.316 103.383 C 238.057 103.433,237.830 103.677,237.811 103.925 C 237.734 104.935,237.644 105.550,237.475 106.225 C 237.340 106.760,237.398 106.936,237.705 106.936 C 238.139 106.936,238.210 107.181,237.962 107.827 C 237.872 108.063,237.600 108.168,237.289 108.087 C 236.971 108.004,236.751 108.094,236.726 108.319 C 236.702 108.521,236.648 108.990,236.605 109.360 C 236.562 109.731,236.461 110.673,236.381 111.454 C 236.302 112.235,236.043 113.249,235.806 113.706 C 235.368 114.554,235.038 116.395,235.065 117.841 C 235.074 118.284,234.884 118.808,234.645 119.006 C 234.322 119.273,234.313 119.315,234.613 119.166 C 234.904 119.021,234.882 119.119,234.534 119.516 C 234.269 119.819,234.082 120.173,234.120 120.303 C 234.158 120.433,234.046 120.796,233.871 121.109 C 233.697 121.423,233.641 121.776,233.747 121.893 C 233.853 122.011,233.801 122.028,233.632 121.931 C 233.321 121.753,232.282 123.044,232.405 123.454 C 232.441 123.576,232.360 123.608,232.225 123.524 C 231.966 123.364,231.092 124.522,231.000 125.145 C 230.971 125.344,230.843 125.601,230.717 125.716 C 230.590 125.832,230.573 125.774,230.680 125.589 C 230.786 125.404,230.808 125.253,230.728 125.253 C 230.529 125.253,229.202 127.897,228.938 128.819 C 228.820 129.228,228.826 129.562,228.951 129.562 C 229.354 129.562,229.064 130.434,228.531 130.823 C 228.005 131.207,227.971 131.309,227.750 133.177 C 227.618 134.296,227.328 134.745,226.679 134.841 C 226.461 134.873,225.944 135.137,225.532 135.428 C 225.119 135.718,224.499 136.044,224.155 136.151 C 223.810 136.258,223.588 136.405,223.662 136.479 C 223.735 136.552,223.537 136.908,223.223 137.270 C 222.908 137.631,222.383 138.585,222.057 139.388 C 221.213 141.462,220.316 142.524,217.674 144.575 C 212.413 148.659,204.352 156.294,204.056 157.473 C 203.837 158.349,205.170 161.191,206.487 162.653 C 207.890 164.209,208.902 164.748,207.628 163.259 C 205.716 161.026,205.559 158.083,207.219 155.583 C 208.977 152.936,216.852 146.122,222.761 142.137 C 223.576 141.587,224.747 140.762,225.363 140.302 C 226.496 139.458,227.074 139.452,227.066 140.285 C 227.062 140.795,225.666 142.492,225.251 142.492 C 224.765 142.492,223.030 144.271,223.030 144.771 C 223.030 145.483,223.825 145.975,224.992 145.985 C 225.552 145.989,226.446 146.175,226.978 146.397 C 227.575 146.647,228.804 146.801,230.192 146.801 C 233.340 146.801,233.790 147.908,231.830 150.836 C 231.286 151.647,230.842 152.402,230.842 152.512 C 230.842 152.623,230.478 152.901,230.034 153.131 C 228.967 153.683,228.917 154.486,229.966 154.213 C 230.374 154.107,231.071 153.998,231.515 153.971 C 232.694 153.898,235.136 151.518,235.196 150.382 C 235.203 150.265,235.495 149.678,235.846 149.079 C 236.198 148.479,236.525 147.752,236.574 147.463 C 236.623 147.173,236.863 146.558,237.107 146.097 C 237.598 145.170,237.788 144.391,238.026 142.313 C 238.157 141.167,238.385 140.703,239.319 139.686 C 239.943 139.007,240.796 137.815,241.216 137.037 C 241.635 136.259,242.071 135.560,242.184 135.483 C 242.404 135.334,243.496 132.903,243.471 132.619 C 243.462 132.527,243.586 132.370,243.745 132.272 C 243.904 132.173,244.102 131.493,244.185 130.760 C 244.403 128.820,244.436 128.658,244.696 128.241 C 244.871 127.960,244.834 127.920,244.553 128.085 C 244.342 128.210,244.390 128.063,244.661 127.753 C 245.071 127.285,245.125 126.861,245.010 125.022 C 244.934 123.809,244.984 122.776,245.124 122.690 C 245.261 122.605,245.332 122.172,245.280 121.728 C 245.228 121.284,245.253 120.988,245.334 121.069 C 245.467 121.202,246.066 119.821,246.323 118.788 C 246.378 118.566,246.451 118.323,246.485 118.249 C 246.519 118.175,246.565 117.993,246.588 117.845 C 246.747 116.801,247.414 114.747,247.593 114.747 C 247.713 114.747,247.811 114.619,247.811 114.462 C 247.811 114.305,247.660 114.266,247.475 114.374 C 247.290 114.482,247.345 114.334,247.597 114.045 C 247.949 113.643,248.121 111.919,247.810 111.919 C 247.789 111.919,247.721 111.646,247.658 111.313 C 247.581 110.896,247.676 110.707,247.964 110.707 C 248.194 110.707,248.314 110.597,248.231 110.463 C 248.148 110.328,248.323 110.282,248.619 110.360 C 248.921 110.438,249.158 110.368,249.158 110.200 C 249.158 110.034,249.007 109.897,248.822 109.895 C 248.578 109.892,248.587 109.826,248.856 109.656 C 249.072 109.519,249.139 109.278,249.016 109.079 C 248.879 108.857,248.914 108.805,249.117 108.931 C 249.288 109.036,249.428 108.994,249.428 108.837 C 249.428 108.681,249.292 108.552,249.125 108.552 C 248.921 108.552,248.936 108.416,249.171 108.133 C 249.362 107.902,249.407 107.751,249.271 107.796 C 248.698 107.987,248.817 107.551,249.568 106.712 C 250.655 105.496,250.905 104.033,250.134 103.400 C 249.488 102.868,249.759 102.031,250.633 101.860 C 250.968 101.794,251.045 101.873,250.895 102.129 C 250.778 102.328,250.947 102.259,251.270 101.975 C 251.695 101.603,251.845 101.190,251.810 100.494 C 251.705 98.409,251.826 97.690,252.224 98.021 C 252.660 98.382,252.880 98.012,252.801 97.050 C 252.774 96.723,252.858 96.522,252.988 96.602 C 253.287 96.787,253.119 95.446,252.807 95.162 C 252.678 95.045,252.656 95.093,252.756 95.268 C 252.856 95.443,252.840 95.646,252.720 95.720 C 252.335 95.958,252.401 94.704,252.806 94.086 C 253.022 93.756,253.207 93.271,253.218 93.006 C 253.234 92.584,253.265 92.591,253.468 93.064 C 253.595 93.360,253.710 93.481,253.723 93.333 C 253.735 93.185,253.863 93.246,254.007 93.468 C 254.164 93.711,254.269 93.744,254.272 93.551 C 254.274 93.375,254.142 93.148,253.978 93.046 C 253.792 92.931,253.778 92.799,253.942 92.694 C 254.535 92.312,254.583 91.361,254.018 91.182 C 253.635 91.061,253.468 90.776,253.468 90.246 C 253.468 89.155,254.157 89.009,254.730 89.978 C 255.191 90.759,255.243 90.774,257.454 90.774 C 260.216 90.774,260.521 90.151,257.824 90.021 C 255.687 89.918,255.650 89.428,257.778 89.428 C 259.035 89.428,259.514 89.308,259.933 88.889 C 260.441 88.381,261.221 88.207,262.521 88.312 C 263.164 88.365,263.377 79.881,262.923 72.323 L 262.713 68.822 262.619 71.380 L 262.526 73.939 262.357 71.650 C 262.254 70.259,262.168 69.837,262.138 70.575 C 262.101 71.462,261.942 71.880,261.549 72.126 C 261.253 72.311,261.010 72.589,261.010 72.744 C 261.010 72.899,260.781 73.535,260.501 74.156 C 259.916 75.454,259.389 77.231,258.566 80.673 C 257.576 84.811,256.657 85.983,254.136 86.326 C 251.202 86.725,251.084 86.816,251.086 88.701 C 251.086 89.779,250.845 91.086,250.405 92.391 C 250.029 93.502,249.361 95.865,248.920 97.643 C 248.479 99.421,247.791 101.966,247.391 103.300 C 246.991 104.633,246.501 106.330,246.302 107.071 C 245.121 111.460,244.662 113.049,244.494 113.320 C 244.391 113.487,244.139 114.452,243.934 115.465 C 243.728 116.478,243.437 117.670,243.287 118.114 C 243.136 118.559,242.850 119.462,242.651 120.122 C 241.936 122.493,239.930 122.853,237.829 120.988 L 236.707 119.993 237.189 117.303 C 237.454 115.823,237.686 114.185,237.706 113.661 C 237.725 113.138,237.826 112.572,237.930 112.404 C 238.315 111.782,240.118 105.150,240.443 103.165 C 240.527 102.646,240.705 102.018,240.837 101.769 C 240.969 101.519,241.077 100.879,241.077 100.346 C 241.077 99.813,241.264 98.929,241.493 98.382 C 241.721 97.836,241.879 97.142,241.843 96.842 C 241.807 96.542,241.907 96.054,242.065 95.758 C 242.222 95.461,242.422 94.734,242.509 94.141 C 242.596 93.549,242.981 91.973,243.363 90.640 C 244.613 86.287,244.240 84.849,241.860 84.848 C 241.025 84.848,239.295 82.865,237.998 80.421 C 236.858 78.270,236.774 77.032,237.576 74.139 C 237.872 73.070,238.117 71.921,238.120 71.586 C 238.124 71.251,238.369 70.440,238.667 69.785 C 239.197 68.617,239.768 65.703,239.833 63.838 C 239.868 62.807,238.992 62.510,237.662 63.103 M194.207 101.385 C 193.541 101.739,192.936 102.024,192.862 102.019 C 192.330 101.978,191.537 102.448,191.689 102.713 C 191.789 102.888,191.776 102.945,191.660 102.840 C 191.406 102.611,189.065 103.759,188.570 104.356 C 188.376 104.590,188.050 104.781,187.846 104.781 C 187.642 104.781,187.475 104.889,187.475 105.021 C 187.475 105.153,187.172 105.338,186.801 105.430 C 186.431 105.523,186.128 105.718,186.128 105.864 C 186.128 106.009,185.953 106.128,185.739 106.128 C 185.525 106.128,185.181 106.370,184.974 106.665 C 184.767 106.960,184.518 107.122,184.420 107.024 C 184.322 106.926,184.242 106.988,184.242 107.160 C 184.242 107.333,184.091 107.444,183.906 107.407 C 183.721 107.370,183.596 107.481,183.628 107.653 C 183.661 107.825,183.328 108.092,182.888 108.245 C 182.448 108.399,182.088 108.652,182.088 108.808 C 182.088 108.963,181.912 109.091,181.697 109.091 C 181.482 109.091,181.209 109.252,181.091 109.449 C 180.972 109.646,180.391 110.132,179.798 110.530 C 179.205 110.927,178.721 111.391,178.721 111.560 C 178.721 111.729,178.481 111.903,178.189 111.946 C 177.897 111.989,177.520 112.212,177.351 112.443 C 177.183 112.673,176.919 112.862,176.766 112.862 C 176.612 112.862,176.114 113.286,175.659 113.805 C 175.204 114.323,174.722 114.747,174.588 114.747 C 174.454 114.747,173.842 115.293,173.227 115.960 C 172.613 116.626,171.991 117.172,171.846 117.172 C 171.701 117.172,171.581 117.263,171.580 117.374 C 171.578 117.485,170.597 118.584,169.400 119.816 C 167.279 121.999,167.235 122.071,167.703 122.588 C 168.134 123.065,168.150 123.282,167.859 124.695 C 167.505 126.406,167.557 126.653,168.824 129.293 C 169.466 130.630,172.831 134.330,173.131 134.029 C 173.193 133.967,172.736 133.410,172.116 132.790 C 169.959 130.632,169.317 127.740,170.436 125.212 C 171.210 123.461,177.336 117.330,181.160 114.478 C 181.856 113.960,183.126 112.990,183.984 112.323 C 184.842 111.657,185.826 110.907,186.172 110.657 C 186.518 110.408,187.633 109.592,188.648 108.845 C 192.396 106.089,196.771 104.500,198.641 105.218 C 200.367 105.880,200.138 114.864,198.332 117.356 C 197.990 117.827,197.710 118.280,197.710 118.361 C 197.710 118.680,195.802 121.468,195.356 121.801 C 194.617 122.352,194.611 122.908,195.347 122.672 C 196.492 122.305,197.710 122.076,197.710 122.229 C 197.710 122.597,199.889 119.938,200.033 119.394 C 200.121 119.061,200.304 118.788,200.440 118.788 C 200.639 118.788,201.183 117.803,201.334 117.172 C 201.351 117.098,201.539 116.734,201.751 116.364 C 201.963 115.993,202.151 115.630,202.169 115.556 C 202.187 115.481,202.276 115.239,202.367 115.017 C 202.599 114.450,203.085 112.506,203.067 112.219 C 203.058 112.087,203.213 111.879,203.411 111.757 C 204.620 111.011,203.561 103.434,202.248 103.434 C 202.105 103.434,202.055 103.327,202.136 103.196 C 202.217 103.064,202.103 102.807,201.883 102.624 C 201.662 102.441,201.480 102.397,201.477 102.526 C 201.475 102.655,201.384 102.630,201.275 102.469 C 200.255 100.965,196.171 100.339,194.207 101.385 M219.918 108.443 C 219.334 108.647,218.818 108.815,218.772 108.817 C 218.726 108.820,218.775 108.961,218.881 109.133 C 218.993 109.314,218.956 109.371,218.791 109.269 C 218.438 109.051,216.566 109.811,216.566 110.172 C 216.566 110.318,216.475 110.425,216.364 110.409 C 215.957 110.350,214.949 110.777,214.949 111.008 C 214.949 111.139,214.837 111.246,214.700 111.246 C 214.375 111.246,210.733 113.694,209.722 114.591 C 209.292 114.973,208.830 115.286,208.696 115.286 C 208.563 115.286,208.530 115.410,208.624 115.562 C 208.717 115.714,208.694 115.821,208.572 115.800 C 207.845 115.673,206.769 116.425,204.265 118.810 C 203.500 119.538,202.787 120.135,202.680 120.135 C 202.574 120.135,202.261 120.396,201.984 120.715 C 201.708 121.034,201.481 121.201,201.481 121.086 C 201.481 120.971,201.301 121.027,201.080 121.210 C 200.860 121.393,200.757 121.669,200.853 121.823 C 200.948 121.977,200.909 122.031,200.766 121.943 C 200.623 121.854,199.968 122.260,199.310 122.843 C 198.653 123.427,198.016 123.905,197.897 123.905 C 197.777 123.906,197.744 124.012,197.824 124.142 C 197.905 124.271,197.669 125.239,197.302 126.292 C 196.934 127.344,196.633 128.384,196.633 128.603 C 196.633 128.822,195.891 129.885,194.983 130.965 C 192.261 134.205,192.364 133.806,193.595 136.366 C 194.626 138.511,195.902 140.337,196.368 140.337 C 196.492 140.337,196.225 139.622,195.775 138.748 C 193.748 134.818,195.644 131.273,203.251 124.769 C 205.323 122.998,209.752 119.490,211.448 118.277 C 212.559 117.482,213.771 116.555,214.141 116.217 C 216.970 113.633,223.771 111.576,225.298 112.844 C 225.814 113.272,225.902 117.993,225.433 120.063 C 224.888 122.467,224.269 124.308,223.689 125.253 C 223.370 125.771,223.017 126.486,222.904 126.841 C 222.686 127.531,221.749 128.471,220.528 129.226 C 219.232 130.028,219.629 130.796,221.279 130.677 C 222.641 130.579,224.080 129.633,223.731 129.067 C 223.645 128.929,223.816 128.753,224.109 128.676 C 224.403 128.599,224.729 128.312,224.834 128.039 C 224.938 127.766,225.252 127.300,225.531 127.003 C 226.018 126.487,226.774 125.213,226.847 124.784 C 226.867 124.671,227.049 124.458,227.252 124.309 C 227.455 124.160,227.700 123.555,227.796 122.964 C 227.892 122.374,228.128 121.732,228.322 121.539 C 228.791 121.069,229.234 119.356,229.304 117.736 C 229.335 117.010,229.449 116.555,229.558 116.726 C 229.667 116.897,229.758 116.272,229.760 115.338 C 229.763 114.121,229.676 113.693,229.453 113.830 C 229.263 113.948,229.215 113.904,229.331 113.718 C 229.856 112.868,228.174 109.782,227.071 109.572 C 226.848 109.530,226.475 109.287,226.240 109.034 C 225.301 108.020,222.017 107.713,219.918 108.443 M240.399 124.673 C 242.392 125.837,242.796 130.268,241.104 132.418 C 240.793 132.813,240.539 133.302,240.539 133.504 C 240.539 133.707,240.299 134.112,240.006 134.405 C 239.713 134.697,239.284 135.334,239.053 135.819 C 237.723 138.604,236.858 139.798,236.169 139.798 C 236.033 139.798,235.354 140.275,234.661 140.857 C 229.430 145.253,225.583 145.347,228.414 141.010 C 229.932 138.685,231.646 134.602,232.033 132.391 C 232.468 129.899,235.500 124.741,236.874 124.157 C 237.634 123.834,239.406 124.093,240.399 124.673 M196.902 140.850 C 196.902 141.005,197.266 141.319,197.710 141.549 C 198.155 141.779,198.519 141.911,198.519 141.843 C 198.519 141.776,198.155 141.461,197.710 141.145 C 197.266 140.828,196.902 140.696,196.902 140.850 " stroke="none" fill="#b74d8d" fill-rule="evenodd"></path><path id="path2" d="M192.140 126.263 C 191.668 126.522,189.910 127.894,188.233 129.312 C 177.604 138.298,172.825 138.616,167.811 130.671 C 165.815 127.508,164.892 127.858,157.980 134.399 C 155.704 136.552,152.539 139.274,151.111 140.304 C 149.318 141.599,144.641 145.323,142.108 147.475 C 140.887 148.512,139.541 149.652,139.117 150.010 C 137.057 151.747,135.528 152.367,135.081 151.645 C 134.514 150.728,134.411 152.705,134.411 164.476 C 134.411 172.937,134.502 177.214,134.680 177.104 C 134.828 177.013,134.949 177.050,134.949 177.187 C 134.949 177.658,137.017 177.060,138.109 176.273 C 138.707 175.841,142.756 172.633,147.107 169.142 C 151.457 165.652,155.639 162.319,156.399 161.735 C 157.160 161.151,158.917 159.754,160.305 158.630 C 163.311 156.196,167.907 152.661,169.619 151.465 C 170.295 150.993,171.225 150.255,171.686 149.824 C 172.148 149.392,173.913 148.082,175.609 146.910 C 177.306 145.739,179.730 143.751,180.997 142.492 C 182.263 141.232,184.572 139.126,186.128 137.812 C 191.918 132.919,195.710 128.285,195.139 126.799 C 194.775 125.850,193.353 125.596,192.140 126.263 M216.939 133.915 C 216.511 134.236,215.495 135.125,214.680 135.892 C 209.069 141.173,203.220 144.686,200.716 144.280 C 197.970 143.834,194.942 141.645,193.006 138.706 C 190.861 135.451,191.204 135.296,181.400 143.973 C 179.224 145.899,176.866 147.899,176.159 148.418 C 175.452 148.936,172.831 151.027,170.333 153.065 C 163.404 158.716,163.747 158.433,147.453 171.981 C 136.779 180.855,136.865 180.792,135.438 180.676 L 134.444 180.595 134.354 185.314 C 134.264 190.002,134.462 191.463,135.169 191.313 C 135.345 191.276,135.488 191.363,135.488 191.506 C 135.488 191.862,162.148 191.873,162.694 191.518 C 162.916 191.373,162.970 191.252,162.815 191.250 C 162.652 191.248,162.578 190.853,162.641 190.316 C 162.759 189.301,164.584 187.515,169.123 183.973 C 170.357 183.010,173.142 180.819,175.313 179.104 C 177.483 177.388,180.411 175.158,181.818 174.146 C 183.226 173.135,184.923 171.856,185.589 171.304 C 186.256 170.752,187.779 169.647,188.973 168.848 C 190.167 168.049,192.239 166.292,193.577 164.943 C 194.914 163.593,196.543 162.108,197.196 161.641 C 197.849 161.175,201.232 158.030,204.714 154.652 C 211.293 148.268,213.873 145.941,216.835 143.721 C 221.378 140.314,222.015 139.333,221.748 136.145 C 221.561 133.906,221.508 133.749,220.875 133.574 C 219.424 133.171,217.737 133.318,216.939 133.915 M227.380 157.325 C 227.031 157.465,225.947 158.311,224.970 159.206 C 214.275 169.006,210.154 169.607,204.138 162.245 C 201.907 159.514,201.343 159.607,197.441 163.339 C 195.075 165.604,192.609 167.720,187.211 172.121 C 181.192 177.028,178.651 179.134,173.884 183.165 C 171.694 185.017,169.239 187.081,168.429 187.753 C 166.924 189.000,166.664 189.324,166.351 190.350 C 166.208 190.817,166.297 190.960,166.790 191.054 C 167.307 191.153,167.276 191.183,166.599 191.236 C 165.798 191.299,165.797 191.301,166.465 191.517 C 166.835 191.637,176.743 191.742,188.482 191.751 L 209.826 191.766 210.475 191.116 C 211.024 190.568,211.056 190.453,210.680 190.376 C 210.312 190.301,210.356 190.171,210.935 189.621 C 211.320 189.255,211.690 188.786,211.758 188.577 C 211.892 188.162,213.064 187.871,213.064 188.253 C 213.064 188.383,213.294 188.550,213.576 188.623 C 214.398 188.838,220.290 183.146,220.190 182.234 C 220.140 181.776,220.246 181.549,220.511 181.549 C 220.750 181.549,220.832 181.683,220.717 181.886 C 220.612 182.071,221.030 181.743,221.644 181.157 C 222.712 180.139,223.035 179.731,222.522 180.048 C 222.391 180.130,222.211 179.925,222.122 179.593 C 221.874 178.669,221.922 178.047,222.241 178.047 C 222.630 178.047,223.300 177.356,223.300 176.955 C 223.300 176.737,223.582 176.687,224.175 176.801 C 224.844 176.929,224.955 176.900,224.646 176.677 C 224.319 176.440,224.356 176.409,224.839 176.515 C 225.189 176.591,225.412 176.522,225.378 176.348 C 225.346 176.185,225.474 176.046,225.663 176.039 C 226.178 176.021,227.870 173.759,227.700 173.317 C 227.491 172.771,227.095 173.099,227.249 173.689 C 227.320 173.959,227.187 174.337,226.955 174.530 C 226.600 174.824,226.532 174.810,226.532 174.444 C 226.532 174.203,226.640 174.007,226.771 174.007 C 226.903 174.007,227.005 173.855,226.998 173.670 C 226.940 172.095,227.736 170.751,228.093 171.822 C 228.168 172.045,228.339 171.969,228.599 171.597 C 228.816 171.288,229.092 171.096,229.213 171.171 C 229.335 171.246,229.599 171.103,229.801 170.854 C 230.112 170.471,230.111 170.436,229.797 170.626 C 229.538 170.781,229.466 170.735,229.561 170.475 C 229.636 170.269,229.864 170.141,230.067 170.191 C 230.271 170.240,230.348 170.191,230.238 170.081 C 230.128 169.971,230.189 169.688,230.373 169.452 C 230.674 169.066,230.657 169.063,230.197 169.425 C 229.721 169.801,229.700 169.785,229.889 169.190 C 230.028 168.751,229.998 168.610,229.793 168.736 C 229.352 169.009,229.431 168.469,229.887 168.091 C 230.103 167.912,230.409 167.845,230.567 167.943 C 230.726 168.041,230.822 167.975,230.781 167.798 C 230.740 167.620,230.860 167.419,231.046 167.351 C 231.307 167.255,231.322 167.402,231.112 167.990 C 230.855 168.708,230.863 168.722,231.250 168.223 C 231.477 167.931,231.604 167.541,231.533 167.356 C 231.462 167.172,231.514 166.953,231.648 166.870 C 231.783 166.787,231.839 166.298,231.773 165.784 C 231.699 165.210,231.768 164.848,231.950 164.848 C 232.113 164.848,232.178 164.671,232.094 164.453 C 231.892 163.926,232.455 163.600,232.750 164.073 C 232.912 164.333,232.988 164.201,233.002 163.636 C 233.014 163.192,233.068 161.495,233.123 159.865 C 233.178 158.236,233.166 157.097,233.097 157.335 C 232.985 157.723,232.811 157.731,231.435 157.407 C 229.665 156.990,228.285 156.962,227.380 157.325 M232.273 165.051 C 232.181 165.310,232.055 165.643,231.992 165.791 C 231.930 165.939,232.070 165.825,232.303 165.538 C 232.727 165.016,232.855 164.579,232.584 164.579 C 232.505 164.579,232.366 164.791,232.273 165.051 M221.434 181.085 L 220.810 181.684 221.283 180.934 C 221.544 180.522,221.824 180.253,221.907 180.336 C 221.990 180.419,221.777 180.756,221.434 181.085 M215.616 187.042 C 214.879 187.692,214.170 188.160,214.039 188.082 C 213.909 188.003,214.014 187.821,214.272 187.676 C 215.029 187.253,215.727 186.458,215.533 186.242 C 215.434 186.132,215.481 186.114,215.636 186.202 C 215.791 186.290,216.094 186.250,216.309 186.114 C 217.139 185.590,216.903 185.904,215.616 187.042 " stroke="none" fill="#fbca47" fill-rule="evenodd"></path><path id="path3" d="M235.609 67.323 C 235.357 67.748,235.152 68.199,235.153 68.324 C 235.153 68.450,235.402 68.145,235.706 67.646 C 236.009 67.148,236.215 66.697,236.162 66.645 C 236.109 66.592,235.860 66.897,235.609 67.323 M234.057 72.369 C 233.906 72.765,233.818 73.270,233.861 73.492 C 233.904 73.714,234.074 73.390,234.239 72.773 C 234.576 71.509,234.471 71.278,234.057 72.369 M233.030 76.667 C 232.631 77.542,232.644 77.744,233.190 79.173 L 233.652 80.384 233.882 79.451 C 234.423 77.252,234.422 77.016,233.871 76.503 C 233.345 76.012,233.327 76.015,233.030 76.667 M233.813 80.720 C 233.817 80.843,234.272 81.433,234.823 82.032 C 235.875 83.176,235.750 82.905,234.529 81.393 C 234.131 80.901,233.808 80.598,233.813 80.720 M284.498 82.764 C 283.613 83.047,282.041 85.030,281.636 86.372 C 281.540 86.692,281.288 87.020,281.076 87.101 C 280.864 87.183,280.522 87.649,280.317 88.136 C 280.112 88.624,279.502 89.600,278.962 90.305 C 278.422 91.010,277.980 91.687,277.980 91.808 C 277.980 91.929,277.603 92.598,277.143 93.293 C 275.860 95.230,276.723 97.619,279.056 98.585 C 279.501 98.770,279.865 99.019,279.865 99.139 C 279.865 99.259,280.138 99.439,280.471 99.537 C 281.097 99.723,281.632 100.044,284.868 102.178 C 285.916 102.869,286.874 103.434,286.998 103.434 C 287.189 103.434,288.580 104.309,291.717 106.403 C 292.088 106.650,292.803 107.066,293.308 107.327 C 293.813 107.588,294.358 107.911,294.520 108.046 C 295.160 108.577,296.872 109.630,297.096 109.630 C 297.226 109.630,297.675 109.907,298.094 110.246 C 298.513 110.585,299.158 111.011,299.529 111.193 C 299.899 111.375,300.747 111.885,301.414 112.327 C 302.081 112.768,303.012 113.310,303.483 113.530 C 303.955 113.751,304.421 114.062,304.520 114.221 C 304.618 114.381,304.960 114.629,305.279 114.774 C 305.598 114.918,306.525 115.454,307.340 115.964 C 308.155 116.474,309.195 117.069,309.651 117.286 C 310.107 117.502,310.637 117.868,310.829 118.099 C 311.020 118.330,311.329 118.519,311.515 118.519 C 311.701 118.519,312.020 118.719,312.223 118.964 C 312.426 119.209,312.999 119.580,313.496 119.787 C 313.992 119.995,314.538 120.283,314.708 120.426 C 314.878 120.570,315.623 121.066,316.364 121.529 C 317.104 121.992,318.141 122.655,318.668 123.003 C 319.194 123.352,319.745 123.636,319.892 123.636 C 320.039 123.636,320.397 123.820,320.686 124.044 C 320.975 124.267,321.818 124.831,322.559 125.296 C 323.300 125.761,324.330 126.408,324.848 126.734 C 325.367 127.060,326.397 127.705,327.138 128.168 C 327.879 128.631,328.624 129.127,328.794 129.271 C 328.964 129.414,329.509 129.702,330.006 129.909 C 330.503 130.117,331.075 130.488,331.279 130.733 C 331.482 130.978,331.785 131.181,331.952 131.183 C 332.229 131.188,333.742 132.121,335.286 133.239 C 336.128 133.849,336.057 134.037,334.747 134.666 C 334.118 134.968,333.239 135.455,332.795 135.748 C 332.350 136.041,331.540 136.525,330.995 136.824 C 330.449 137.122,329.926 137.491,329.832 137.643 C 329.737 137.796,329.274 138.101,328.803 138.321 C 328.332 138.542,327.401 139.085,326.734 139.529 C 326.067 139.972,325.158 140.523,324.714 140.752 C 324.269 140.981,323.527 141.436,323.064 141.763 C 322.002 142.513,319.849 143.859,318.942 144.341 C 318.561 144.544,317.452 145.241,316.479 145.890 C 315.505 146.539,314.580 147.071,314.424 147.071 C 314.268 147.071,313.974 147.271,313.770 147.516 C 313.567 147.762,312.994 148.132,312.498 148.340 C 312.001 148.547,311.456 148.839,311.286 148.987 C 310.893 149.331,309.654 150.131,307.340 151.535 C 305.286 152.782,303.688 153.804,303.374 154.071 C 303.193 154.225,302.745 154.465,302.379 154.605 C 302.012 154.744,301.122 155.273,300.399 155.781 C 299.676 156.289,298.670 156.917,298.162 157.178 C 297.654 157.438,297.178 157.739,297.104 157.847 C 297.030 157.954,296.438 158.331,295.788 158.684 C 294.059 159.624,293.659 159.869,293.133 160.309 C 292.873 160.526,292.357 160.848,291.987 161.023 C 291.616 161.199,290.543 161.829,289.603 162.422 C 288.662 163.016,287.802 163.502,287.691 163.502 C 287.581 163.502,287.274 163.741,287.010 164.034 C 286.745 164.326,286.300 164.638,286.020 164.727 C 285.741 164.815,284.729 165.394,283.772 166.013 C 282.815 166.632,281.413 167.502,280.657 167.946 C 279.900 168.391,279.134 168.890,278.954 169.056 C 278.774 169.222,278.234 169.561,277.753 169.810 C 275.781 170.829,276.234 174.078,278.657 176.296 C 278.818 176.444,279.306 177.111,279.741 177.778 C 280.661 179.190,281.954 180.901,282.626 181.599 C 282.886 181.868,283.098 182.239,283.098 182.424 C 283.098 183.219,285.171 185.051,286.071 185.051 C 287.135 185.051,289.343 184.039,291.407 182.606 C 292.244 182.025,293.066 181.549,293.233 181.549 C 293.400 181.549,293.696 181.357,293.890 181.123 C 294.085 180.888,294.630 180.495,295.103 180.247 C 295.575 180.000,296.622 179.358,297.430 178.821 C 298.237 178.283,299.145 177.765,299.447 177.669 C 299.749 177.573,300.213 177.255,300.478 176.963 C 300.742 176.670,301.103 176.431,301.280 176.431 C 301.457 176.431,301.853 176.219,302.161 175.960 C 302.469 175.700,303.063 175.280,303.482 175.025 C 303.900 174.770,304.485 174.408,304.781 174.222 C 305.077 174.035,305.926 173.521,306.667 173.078 C 307.407 172.636,308.078 172.183,308.158 172.073 C 308.237 171.963,308.722 171.679,309.235 171.443 C 309.748 171.207,310.736 170.626,311.431 170.153 C 312.125 169.680,313.034 169.084,313.451 168.829 C 313.868 168.574,314.451 168.214,314.747 168.028 C 315.044 167.842,315.710 167.435,316.229 167.124 C 316.747 166.813,317.657 166.252,318.249 165.878 C 322.436 163.237,322.212 163.381,324.040 162.164 C 324.707 161.720,325.385 161.354,325.547 161.352 C 325.709 161.349,326.194 161.044,326.625 160.674 C 327.055 160.304,327.480 160.001,327.568 160.000 C 327.657 160.000,328.009 159.758,328.350 159.461 C 328.692 159.165,329.125 158.923,329.313 158.923 C 329.502 158.923,329.999 158.650,330.419 158.316 C 331.296 157.621,331.868 157.253,333.217 156.521 C 333.745 156.234,334.329 155.816,334.515 155.593 C 334.700 155.369,335.206 155.108,335.638 155.013 C 336.071 154.918,336.490 154.735,336.570 154.606 C 336.765 154.291,339.095 152.727,339.370 152.727 C 339.491 152.727,340.047 152.364,340.606 151.919 C 341.165 151.475,341.758 151.103,341.923 151.093 C 342.087 151.083,342.768 150.657,343.434 150.147 C 344.101 149.636,345.053 149.031,345.549 148.803 C 346.046 148.574,346.592 148.268,346.762 148.121 C 347.068 147.858,348.801 146.753,350.942 145.455 C 355.568 142.650,355.225 143.575,355.259 133.810 C 355.290 124.956,355.184 124.348,353.452 123.468 C 352.905 123.190,352.115 122.690,351.697 122.357 C 351.278 122.024,350.793 121.743,350.619 121.733 C 350.445 121.723,349.758 121.299,349.091 120.791 C 348.424 120.283,347.576 119.746,347.205 119.597 C 346.835 119.449,346.395 119.236,346.227 119.125 C 346.059 119.014,345.210 118.450,344.341 117.872 C 341.496 115.979,340.883 115.612,340.269 115.430 C 339.936 115.331,339.663 115.143,339.663 115.011 C 339.663 114.880,339.245 114.574,338.733 114.331 C 338.221 114.088,337.661 113.719,337.488 113.511 C 337.315 113.302,337.043 113.131,336.884 113.131 C 336.725 113.131,336.164 112.846,335.637 112.498 C 335.111 112.150,334.074 111.487,333.333 111.024 C 332.593 110.561,331.847 110.065,331.677 109.921 C 331.507 109.777,330.962 109.473,330.465 109.245 C 329.969 109.016,329.017 108.411,328.350 107.900 C 327.684 107.390,327.003 106.964,326.838 106.954 C 326.672 106.944,326.196 106.667,325.778 106.339 C 325.361 106.011,324.688 105.556,324.284 105.329 C 322.034 104.066,317.539 101.281,316.128 100.276 C 315.665 99.947,314.983 99.553,314.613 99.401 C 313.870 99.096,313.935 99.136,311.855 97.710 C 311.045 97.155,310.291 96.700,310.179 96.700 C 310.068 96.700,309.617 96.397,309.176 96.027 C 308.736 95.657,308.222 95.354,308.035 95.354 C 307.847 95.354,307.474 95.111,307.205 94.815 C 306.937 94.519,306.607 94.276,306.472 94.276 C 306.337 94.276,305.829 93.973,305.344 93.603 C 304.858 93.232,304.267 92.929,304.031 92.929 C 303.794 92.929,303.528 92.811,303.438 92.666 C 303.211 92.298,300.475 90.505,300.140 90.505 C 299.988 90.505,299.714 90.324,299.530 90.102 C 299.346 89.881,298.315 89.213,297.239 88.620 C 296.163 88.026,295.132 87.358,294.948 87.137 C 294.765 86.915,294.484 86.734,294.325 86.734 C 294.166 86.734,293.605 86.449,293.078 86.101 C 292.552 85.753,291.515 85.089,290.774 84.627 C 290.034 84.164,289.273 83.653,289.085 83.492 C 287.953 82.526,286.140 82.238,284.498 82.764 M110.429 84.020 C 109.523 84.197,109.019 84.420,108.418 84.909 C 107.667 85.519,105.687 86.725,105.429 86.729 C 105.267 86.732,104.917 86.973,104.653 87.266 C 104.388 87.558,103.934 87.873,103.643 87.965 C 103.352 88.058,102.567 88.515,101.897 88.982 C 101.228 89.449,100.149 90.135,99.500 90.505 C 96.520 92.207,95.162 93.051,94.457 93.640 C 94.039 93.990,93.548 94.276,93.367 94.276 C 93.187 94.276,92.802 94.458,92.513 94.681 C 91.380 95.554,89.547 96.691,89.267 96.695 C 89.105 96.698,88.756 96.940,88.491 97.232 C 88.226 97.525,87.773 97.839,87.483 97.931 C 87.193 98.023,86.192 98.632,85.258 99.285 C 84.325 99.938,83.463 100.471,83.344 100.471 C 83.224 100.471,82.696 100.755,82.169 101.101 C 78.476 103.528,77.372 104.206,76.871 104.356 C 76.557 104.449,76.083 104.765,75.819 105.057 C 75.554 105.350,75.189 105.589,75.008 105.589 C 74.827 105.589,74.522 105.778,74.331 106.009 C 74.139 106.240,73.609 106.601,73.153 106.812 C 72.101 107.298,68.398 109.617,67.927 110.084 C 67.731 110.279,67.407 110.438,67.207 110.438 C 67.007 110.438,66.483 110.741,66.042 111.111 C 65.602 111.481,65.138 111.787,65.012 111.789 C 64.781 111.794,62.662 113.132,62.014 113.681 C 61.826 113.841,61.258 114.145,60.753 114.356 C 60.248 114.567,59.761 114.859,59.670 115.006 C 59.579 115.153,58.692 115.726,57.699 116.280 C 56.705 116.833,55.771 117.385,55.623 117.505 C 55.475 117.626,54.808 118.064,54.141 118.478 C 53.475 118.893,52.577 119.465,52.147 119.751 C 50.741 120.684,49.443 121.455,48.598 121.860 C 48.142 122.079,47.612 122.447,47.420 122.678 C 47.229 122.909,46.914 123.098,46.722 123.098 C 46.529 123.098,46.029 123.375,45.610 123.714 C 45.191 124.053,44.522 124.472,44.122 124.645 C 42.496 125.347,42.432 125.690,42.342 134.179 C 42.260 141.838,42.415 143.732,43.175 144.386 C 43.875 144.989,48.097 147.603,48.376 147.606 C 48.538 147.608,48.890 147.852,49.158 148.148 C 49.426 148.444,49.756 148.687,49.891 148.687 C 50.026 148.687,50.534 148.990,51.020 149.360 C 51.505 149.731,51.995 150.034,52.108 150.034 C 52.221 150.034,52.673 150.337,53.113 150.707 C 53.553 151.077,54.071 151.380,54.264 151.380 C 54.456 151.380,54.771 151.569,54.962 151.800 C 55.154 152.031,55.684 152.399,56.140 152.618 C 57.180 153.117,58.511 153.928,60.370 155.197 C 61.167 155.740,62.152 156.336,62.559 156.520 C 62.966 156.704,63.300 156.948,63.300 157.062 C 63.300 157.177,63.572 157.353,63.906 157.453 C 64.239 157.554,65.163 158.077,65.960 158.616 C 66.756 159.155,67.803 159.838,68.285 160.135 C 68.768 160.431,69.692 161.032,70.339 161.471 C 71.554 162.296,72.145 162.652,74.089 163.729 C 74.715 164.076,75.362 164.472,75.526 164.609 C 76.259 165.221,78.278 166.455,78.553 166.460 C 78.720 166.462,79.015 166.655,79.208 166.888 C 79.402 167.121,79.992 167.549,80.521 167.838 C 82.229 168.773,83.286 169.443,83.687 169.844 C 83.902 170.059,84.189 170.236,84.324 170.236 C 84.458 170.236,85.252 170.690,86.088 171.246 C 86.924 171.801,87.987 172.472,88.450 172.735 C 88.914 172.999,89.838 173.575,90.505 174.014 C 91.172 174.454,92.111 174.997,92.593 175.222 C 93.074 175.446,93.468 175.742,93.468 175.878 C 93.468 176.014,93.741 176.209,94.074 176.312 C 94.407 176.415,95.442 177.028,96.372 177.674 C 97.303 178.320,98.364 178.924,98.729 179.016 C 99.095 179.108,99.394 179.272,99.394 179.380 C 99.394 179.488,100.636 180.337,102.155 181.267 C 103.673 182.196,105.244 183.186,105.646 183.465 C 106.047 183.744,106.487 183.973,106.623 183.973 C 106.759 183.973,107.022 184.156,107.208 184.380 C 107.655 184.919,110.772 186.397,111.461 186.397 C 112.137 186.397,114.206 184.704,114.747 183.708 C 115.338 182.622,116.174 181.441,116.501 181.231 C 116.658 181.130,117.263 180.343,117.844 179.480 C 118.426 178.618,119.380 177.328,119.964 176.613 C 121.574 174.644,121.594 172.088,120.007 171.205 C 119.715 171.042,118.758 170.449,117.880 169.886 C 117.003 169.323,115.921 168.674,115.475 168.443 C 115.028 168.212,114.531 167.913,114.369 167.778 C 113.647 167.176,111.622 165.935,111.355 165.931 C 111.193 165.928,110.841 165.684,110.572 165.387 C 110.304 165.091,109.931 164.848,109.743 164.848 C 109.555 164.848,109.041 164.545,108.601 164.175 C 108.161 163.805,107.720 163.502,107.620 163.502 C 107.520 163.502,107.042 163.199,106.556 162.828 C 106.070 162.458,105.480 162.155,105.243 162.155 C 105.006 162.155,104.740 162.037,104.650 161.892 C 104.423 161.523,101.687 159.731,101.352 159.731 C 101.200 159.731,100.917 159.539,100.722 159.305 C 100.528 159.070,99.984 158.676,99.513 158.429 C 97.343 157.291,96.504 156.776,96.178 156.383 C 95.985 156.150,95.690 155.957,95.523 155.955 C 95.248 155.950,93.233 154.719,92.500 154.108 C 92.338 153.973,91.792 153.650,91.288 153.392 C 90.783 153.133,90.310 152.831,90.236 152.720 C 90.162 152.609,89.677 152.325,89.158 152.088 C 88.640 151.851,87.670 151.240,87.003 150.729 C 86.337 150.218,85.649 149.792,85.475 149.782 C 85.301 149.772,84.799 149.461,84.359 149.091 C 83.919 148.721,83.455 148.415,83.328 148.413 C 83.130 148.408,81.958 147.679,80.198 146.465 C 79.936 146.285,79.375 145.953,78.951 145.729 C 78.527 145.504,77.496 144.865,76.661 144.310 C 75.825 143.754,75.047 143.300,74.932 143.300 C 74.817 143.300,74.486 143.116,74.196 142.892 C 73.688 142.499,71.987 141.408,70.034 140.222 C 69.515 139.907,68.848 139.498,68.552 139.312 C 68.256 139.126,67.671 138.766,67.253 138.511 C 66.834 138.256,66.240 137.835,65.932 137.576 C 65.624 137.316,65.251 137.104,65.102 137.104 C 64.954 137.104,64.457 136.819,63.998 136.470 C 63.540 136.121,62.892 135.749,62.559 135.644 C 61.715 135.377,61.805 134.913,62.830 134.250 C 63.311 133.940,64.395 133.240,65.241 132.695 C 66.086 132.150,66.851 131.586,66.940 131.441 C 67.029 131.297,67.289 131.178,67.516 131.178 C 67.744 131.178,68.310 130.906,68.774 130.572 C 69.786 129.846,70.163 129.612,71.595 128.825 C 72.198 128.494,72.765 128.104,72.855 127.958 C 72.945 127.812,73.529 127.443,74.153 127.140 C 75.650 126.410,76.394 125.967,76.968 125.462 C 77.228 125.234,77.698 124.969,78.012 124.873 C 78.325 124.778,78.799 124.461,79.063 124.168 C 79.328 123.876,79.665 123.636,79.812 123.636 C 80.130 123.636,82.874 121.844,83.089 121.496 C 83.171 121.363,83.588 121.177,84.016 121.083 C 84.443 120.989,85.006 120.677,85.266 120.389 C 85.527 120.101,85.873 119.863,86.035 119.860 C 86.330 119.856,88.403 118.562,89.150 117.917 C 89.367 117.729,89.974 117.360,90.497 117.097 C 91.912 116.386,92.601 115.962,93.147 115.468 C 93.417 115.223,94.024 114.889,94.496 114.724 C 94.967 114.560,95.354 114.313,95.354 114.176 C 95.354 114.038,95.655 113.811,96.024 113.671 C 96.392 113.531,97.527 112.868,98.546 112.197 C 99.564 111.525,100.520 110.976,100.671 110.976 C 100.821 110.976,101.110 110.776,101.314 110.531 C 101.517 110.285,102.047 109.917,102.492 109.713 C 102.936 109.508,103.845 108.981,104.512 108.543 C 105.178 108.104,106.110 107.565,106.581 107.345 C 107.052 107.125,107.515 106.819,107.609 106.667 C 107.764 106.417,108.660 105.875,110.675 104.814 C 111.063 104.609,111.623 104.233,111.919 103.978 C 112.215 103.723,112.640 103.451,112.862 103.373 C 113.084 103.295,114.100 102.670,115.120 101.986 C 116.139 101.301,117.121 100.741,117.300 100.741 C 117.480 100.741,117.846 100.498,118.114 100.202 C 118.383 99.906,118.735 99.659,118.897 99.655 C 120.685 99.603,121.749 96.220,120.539 94.436 C 120.168 93.891,119.865 93.345,119.865 93.224 C 119.865 93.103,119.502 92.546,119.057 91.987 C 118.613 91.427,118.249 90.871,118.249 90.751 C 118.249 90.475,116.691 88.153,116.426 88.034 C 116.318 87.986,116.011 87.522,115.744 87.003 C 114.657 84.890,114.415 84.560,113.668 84.174 C 112.849 83.750,112.007 83.710,110.429 84.020 M260.745 89.288 C 260.561 89.509,260.485 89.881,260.574 90.115 C 260.702 90.449,260.608 90.505,260.133 90.375 C 259.593 90.227,259.581 90.242,260.020 90.516 C 260.817 91.015,263.207 89.879,262.787 89.201 C 262.555 88.826,261.076 88.889,260.745 89.288 M254.007 90.337 C 254.007 91.048,254.697 91.190,257.374 91.031 L 260.067 90.870 257.433 90.822 C 255.371 90.785,254.764 90.687,254.643 90.370 C 254.448 89.864,254.007 89.841,254.007 90.337 M240.588 90.909 C 240.116 91.945,240.200 92.190,240.817 91.574 C 241.187 91.203,241.290 90.895,241.135 90.618 C 240.949 90.285,240.848 90.339,240.588 90.909 M253.670 94.843 C 253.009 95.998,253.088 96.483,253.766 95.425 C 254.073 94.946,254.283 94.433,254.233 94.286 C 254.182 94.139,253.929 94.390,253.670 94.843 M252.165 99.810 C 251.993 100.187,251.857 100.703,251.864 100.955 C 251.870 101.208,252.047 100.934,252.256 100.347 C 252.690 99.127,252.632 98.784,252.165 99.810 M200.965 101.886 C 201.027 101.923,201.441 102.256,201.886 102.626 L 202.694 103.300 202.041 102.559 C 201.681 102.152,201.267 101.818,201.120 101.818 C 200.973 101.818,200.903 101.848,200.965 101.886 M250.509 102.980 C 250.519 103.757,250.979 104.059,251.284 103.488 C 251.675 102.758,251.672 102.748,251.044 102.700 C 250.747 102.678,250.507 102.804,250.509 102.980 M184.968 106.271 C 184.552 106.637,184.319 106.936,184.450 106.936 C 184.580 106.936,184.972 106.633,185.320 106.263 C 186.125 105.406,185.947 105.410,184.968 106.271 M250.100 106.940 C 250.005 107.238,249.841 107.429,249.735 107.363 C 249.629 107.298,249.515 107.567,249.483 107.961 C 249.426 108.645,249.440 108.654,249.793 108.144 C 250.210 107.542,250.612 106.397,250.407 106.397 C 250.333 106.397,250.194 106.641,250.100 106.940 M236.804 107.367 C 236.408 108.236,236.489 108.345,237.073 107.731 C 237.314 107.477,237.426 107.130,237.321 106.960 C 237.200 106.764,237.011 106.913,236.804 107.367 M248.889 110.947 C 248.889 111.129,248.788 111.215,248.664 111.139 C 248.541 111.063,248.425 111.146,248.406 111.325 C 248.387 111.504,248.311 112.013,248.236 112.458 C 248.161 112.902,248.170 113.029,248.256 112.739 C 248.341 112.448,248.596 111.929,248.821 111.585 C 249.047 111.241,249.154 110.883,249.060 110.788 C 248.966 110.694,248.889 110.766,248.889 110.947 M229.380 112.593 C 229.479 112.963,229.672 113.448,229.810 113.670 C 229.983 113.951,230.004 113.869,229.879 113.401 C 229.780 113.030,229.587 112.545,229.450 112.323 C 229.276 112.042,229.255 112.125,229.380 112.593 M247.316 115.702 C 246.865 116.692,246.951 116.904,247.439 116.003 C 247.667 115.583,247.803 115.188,247.742 115.127 C 247.680 115.065,247.489 115.324,247.316 115.702 M232.317 122.565 C 231.911 123.015,231.887 123.168,232.181 123.441 C 232.464 123.703,232.496 123.699,232.336 123.417 C 232.221 123.214,232.336 122.842,232.608 122.542 C 232.868 122.255,233.020 122.020,232.945 122.020 C 232.871 122.020,232.589 122.265,232.317 122.565 M227.269 124.513 L 226.794 125.387 227.336 124.751 C 227.798 124.210,228.045 123.632,227.811 123.638 C 227.774 123.639,227.530 124.033,227.269 124.513 M244.886 124.175 C 244.886 124.397,244.991 124.822,245.118 125.118 C 245.264 125.457,245.349 125.507,245.349 125.253 C 245.349 125.030,245.245 124.606,245.118 124.310 C 244.972 123.970,244.886 123.920,244.886 124.175 M230.323 125.154 C 230.016 125.545,229.768 125.999,229.773 126.164 C 229.777 126.329,229.915 126.222,230.080 125.926 C 230.244 125.630,230.562 125.175,230.787 124.916 C 231.011 124.657,231.124 124.444,231.038 124.444 C 230.951 124.444,230.630 124.764,230.323 125.154 M226.053 126.543 L 225.440 127.542 226.121 126.786 C 226.495 126.371,226.801 125.916,226.801 125.776 C 226.801 125.380,226.710 125.473,226.053 126.543 M228.183 130.145 C 227.995 130.446,227.910 130.761,227.995 130.846 C 228.079 130.930,228.150 130.827,228.152 130.617 C 228.156 130.302,228.207 130.305,228.447 130.640 C 228.695 130.985,228.717 130.978,228.593 130.590 C 228.513 130.340,228.587 130.090,228.756 130.033 C 228.951 129.968,228.966 129.869,228.795 129.764 C 228.647 129.672,228.371 129.844,228.183 130.145 " stroke="none" fill="#040404" fill-rule="evenodd"></path><path id="path4" d="M240.006 83.448 C 240.807 84.378,241.420 84.848,241.830 84.848 L 242.449 84.848 241.775 84.175 C 241.405 83.805,240.921 83.502,240.701 83.502 C 240.480 83.502,240.142 83.282,239.948 83.014 C 239.754 82.745,239.417 82.418,239.198 82.287 C 238.979 82.155,239.343 82.678,240.006 83.448 M243.488 85.607 C 244.303 86.287,244.380 86.468,244.234 87.364 C 244.037 88.577,244.424 88.435,244.987 87.087 C 245.524 85.803,245.509 85.733,244.593 85.259 C 243.116 84.496,242.419 84.715,243.488 85.607 M243.152 91.448 C 243.034 91.892,242.870 92.498,242.787 92.795 C 242.647 93.292,242.670 93.300,243.089 92.900 C 243.384 92.617,243.511 92.149,243.454 91.553 L 243.366 90.640 243.152 91.448 M241.991 95.837 C 241.838 96.090,241.795 96.599,241.894 96.970 C 242.062 97.593,242.091 97.567,242.282 96.620 C 242.516 95.464,242.402 95.158,241.991 95.837 M240.733 101.908 C 240.411 102.727,240.487 103.416,240.834 102.820 C 240.988 102.556,241.072 102.132,241.020 101.877 C 240.935 101.454,240.910 101.457,240.733 101.908 M239.500 107.113 C 239.309 107.979,239.085 108.854,239.004 109.057 C 238.911 109.289,238.994 109.381,239.226 109.304 C 239.450 109.230,239.675 108.554,239.797 107.587 C 240.070 105.427,239.925 105.195,239.500 107.113 M237.955 112.364 C 237.457 113.170,237.663 114.833,238.182 114.193 C 238.462 113.847,238.603 113.336,238.530 112.934 C 238.375 112.077,238.224 111.928,237.955 112.364 M236.912 118.686 C 236.809 119.370,236.837 120.042,236.974 120.179 C 237.126 120.331,237.241 119.848,237.271 118.934 C 237.331 117.117,237.164 117.002,236.912 118.686 M194.747 121.681 C 194.377 121.924,192.791 123.342,191.222 124.832 C 183.585 132.089,179.287 134.949,176.021 134.949 C 173.102 134.949,169.759 131.784,167.914 127.273 L 167.583 126.465 167.563 127.617 C 167.518 130.105,171.048 134.931,173.635 135.919 C 176.098 136.860,179.746 135.962,182.896 133.640 C 188.245 129.697,194.506 123.865,194.798 122.551 C 194.844 122.343,195.125 121.961,195.421 121.702 C 196.099 121.108,195.644 121.094,194.747 121.681 M196.519 127.825 C 196.421 128.217,195.803 129.026,195.147 129.624 C 194.074 130.600,192.627 132.919,192.913 133.205 C 193.165 133.457,196.424 129.230,196.673 128.328 C 196.821 127.794,196.887 127.302,196.820 127.235 C 196.753 127.168,196.617 127.434,196.519 127.825 M216.094 132.623 C 203.512 144.753,198.102 145.698,193.672 136.537 C 192.609 134.338,192.593 134.320,192.593 135.375 C 192.593 138.235,196.002 142.622,199.136 143.794 C 201.055 144.512,201.360 144.515,203.405 143.826 C 208.322 142.169,222.400 129.832,219.373 129.832 C 219.162 129.832,217.686 131.088,216.094 132.623 M222.030 138.794 C 221.502 139.952,220.267 141.170,217.676 143.087 C 211.281 147.820,203.941 155.067,204.224 156.368 C 204.277 156.612,205.697 155.393,207.946 153.174 C 211.826 149.345,213.967 147.453,217.674 144.575 C 220.233 142.588,221.153 141.529,221.964 139.638 C 222.503 138.379,222.562 137.626,222.030 138.794 M226.038 156.314 C 221.404 160.808,216.986 164.250,214.538 165.273 C 211.084 166.716,206.764 164.346,204.682 159.865 C 203.935 158.260,203.930 158.255,203.918 159.216 C 203.855 164.141,210.559 168.617,214.949 166.580 C 218.688 164.847,231.172 154.343,229.495 154.343 C 229.295 154.343,229.219 154.128,229.304 153.805 C 229.524 152.963,229.374 153.078,226.038 156.314 " stroke="none" fill="#c46d88" fill-rule="evenodd"></path><path id="path5" d="M192.586 125.394 L 191.666 126.343 192.542 126.038 C 193.535 125.692,194.861 126.075,195.135 126.788 C 195.710 128.286,191.938 132.902,186.128 137.812 C 184.572 139.126,182.263 141.232,180.997 142.492 C 179.730 143.751,177.306 145.739,175.609 146.910 C 173.913 148.082,172.148 149.392,171.686 149.824 C 171.225 150.255,170.295 150.993,169.619 151.465 C 167.907 152.661,163.311 156.196,160.305 158.630 C 158.917 159.754,157.160 161.151,156.399 161.735 C 155.639 162.319,151.457 165.652,147.107 169.142 C 142.756 172.633,138.707 175.841,138.109 176.273 C 137.017 177.060,134.949 177.658,134.949 177.187 C 134.949 177.050,134.828 177.013,134.680 177.104 C 134.502 177.214,134.411 172.937,134.411 164.476 C 134.411 152.705,134.514 150.728,135.081 151.645 C 135.528 152.367,137.057 151.747,139.117 150.010 C 139.541 149.652,140.887 148.512,142.108 147.475 C 144.641 145.323,149.318 141.599,151.111 140.304 C 152.539 139.274,155.704 136.552,157.980 134.399 C 164.603 128.131,165.893 127.554,167.454 130.158 C 168.524 131.943,170.004 133.675,171.125 134.453 C 171.776 134.905,171.638 134.678,170.561 133.523 C 169.213 132.077,168.175 130.189,166.830 126.734 C 166.358 125.521,166.226 125.391,165.510 125.423 C 165.072 125.443,164.619 125.322,164.504 125.154 C 164.388 124.986,164.370 125.180,164.464 125.585 C 164.636 126.323,163.588 127.121,162.959 126.732 C 162.833 126.654,162.655 126.714,162.562 126.864 C 162.469 127.015,162.551 127.143,162.745 127.149 C 162.939 127.155,162.764 127.340,162.357 127.561 C 161.949 127.782,161.616 128.144,161.616 128.365 C 161.616 128.786,160.425 129.405,159.731 129.344 C 159.431 129.318,159.419 129.349,159.685 129.465 C 160.177 129.680,158.729 131.190,158.218 130.995 C 158.013 130.916,157.845 130.986,157.845 131.150 C 157.845 131.314,157.660 131.448,157.434 131.448 C 157.209 131.448,156.909 131.749,156.770 132.116 C 156.609 132.538,156.373 132.729,156.127 132.635 C 155.888 132.544,155.670 132.704,155.559 133.052 C 155.461 133.363,155.086 133.810,154.727 134.045 C 154.368 134.280,154.074 134.641,154.074 134.846 C 154.074 135.051,153.892 135.219,153.670 135.219 C 153.447 135.219,153.266 135.458,153.266 135.751 C 153.266 136.064,152.948 136.447,152.491 136.683 C 152.064 136.904,151.644 137.271,151.556 137.498 C 151.469 137.726,151.178 137.912,150.910 137.912 C 150.642 137.912,150.215 138.155,149.961 138.451 C 149.555 138.926,148.996 139.124,148.350 139.022 C 148.239 139.004,148.148 139.217,148.148 139.496 C 148.148 140.088,147.480 140.724,147.102 140.491 C 146.958 140.402,146.763 140.573,146.668 140.872 C 146.479 141.466,145.580 142.062,145.214 141.836 C 145.087 141.758,144.763 141.987,144.494 142.346 C 144.225 142.705,143.907 142.938,143.788 142.864 C 143.669 142.791,143.426 143.050,143.248 143.439 C 142.915 144.172,141.538 145.077,140.938 144.958 C 140.751 144.921,140.613 144.987,140.631 145.105 C 140.649 145.223,140.576 145.593,140.469 145.926 C 140.280 146.512,140.038 146.644,139.327 146.552 C 139.141 146.528,138.990 146.689,138.990 146.911 C 138.990 147.132,138.535 147.651,137.980 148.066 C 137.424 148.480,136.873 148.971,136.754 149.157 C 136.636 149.343,136.068 149.495,135.492 149.495 C 134.195 149.495,134.347 146.856,134.309 169.966 C 134.291 180.707,134.309 187.492,134.350 185.044 L 134.423 180.593 135.427 180.675 C 136.866 180.792,136.769 180.863,147.453 171.981 C 163.747 158.433,163.404 158.716,170.333 153.065 C 172.831 151.027,175.452 148.936,176.159 148.418 C 176.866 147.899,179.224 145.899,181.400 143.973 C 190.836 135.621,190.956 135.556,192.502 137.967 C 193.790 139.974,194.737 141.092,195.905 141.987 C 197.015 142.836,197.009 142.824,195.636 141.393 C 194.255 139.955,191.785 135.313,191.785 134.160 C 191.785 133.674,192.955 132.052,194.803 129.976 C 197.092 127.405,197.390 125.360,195.556 124.814 C 193.820 124.297,193.610 124.338,192.586 125.394 M218.451 132.322 C 217.348 133.244,217.370 133.472,218.551 133.378 C 219.174 133.329,220.103 133.397,220.616 133.529 L 221.549 133.770 221.747 136.135 C 221.970 138.794,221.910 138.983,220.247 140.847 C 219.328 141.877,219.294 141.951,220.044 141.279 C 221.221 140.227,222.492 138.242,222.492 137.456 C 222.492 137.114,222.582 136.835,222.694 136.835 C 222.987 136.836,222.758 133.799,222.435 133.404 C 222.285 133.221,222.222 132.913,222.296 132.721 C 222.372 132.524,222.238 132.366,221.990 132.360 C 221.747 132.354,220.943 132.267,220.202 132.166 C 219.279 132.042,218.728 132.091,218.451 132.322 M223.293 135.164 L 223.423 136.431 223.514 135.385 C 223.565 134.810,223.506 134.240,223.384 134.118 C 223.263 133.997,223.222 134.467,223.293 135.164 M139.933 144.377 C 139.481 144.876,139.479 144.916,139.907 144.916 C 140.161 144.916,140.298 144.802,140.212 144.663 C 140.126 144.524,140.271 144.285,140.533 144.132 C 140.795 143.980,140.877 143.851,140.715 143.847 C 140.553 143.842,140.201 144.081,139.933 144.377 M201.962 157.339 C 200.290 158.987,198.256 160.831,197.441 161.437 C 196.626 162.044,194.876 163.633,193.552 164.968 C 192.228 166.303,190.167 168.049,188.973 168.848 C 187.779 169.647,186.256 170.752,185.589 171.304 C 184.923 171.856,183.226 173.135,181.818 174.146 C 180.411 175.158,177.483 177.388,175.313 179.104 C 173.142 180.819,170.357 183.010,169.123 183.973 C 164.584 187.515,162.759 189.301,162.641 190.316 C 162.578 190.853,162.652 191.248,162.815 191.250 C 162.970 191.252,162.916 191.372,162.694 191.515 C 162.418 191.694,163.058 191.769,164.714 191.754 C 166.337 191.738,166.915 191.660,166.465 191.515 C 165.797 191.301,165.799 191.299,166.599 191.236 C 167.276 191.183,167.307 191.153,166.790 191.054 C 166.297 190.960,166.208 190.817,166.351 190.350 C 166.664 189.324,166.924 189.000,168.429 187.753 C 169.239 187.081,171.694 185.017,173.884 183.165 C 178.651 179.134,181.192 177.028,187.211 172.121 C 192.609 167.720,195.075 165.604,197.441 163.339 C 201.142 159.798,201.950 159.583,203.660 161.684 C 205.339 163.746,206.625 165.087,207.542 165.730 C 208.000 166.051,207.737 165.684,206.936 164.885 C 205.552 163.502,203.098 159.053,203.098 157.925 C 203.098 157.672,203.590 156.762,204.192 155.904 C 205.713 153.736,205.436 153.915,201.962 157.339 M232.370 155.599 C 232.272 155.696,231.373 155.750,230.372 155.718 C 228.619 155.661,228.519 155.693,227.654 156.586 L 226.757 157.513 227.864 157.217 C 228.726 156.987,229.414 157.012,230.976 157.330 L 232.980 157.738 232.930 156.580 C 232.881 155.461,232.745 155.223,232.370 155.599 M232.117 163.932 C 232.029 164.021,232.022 164.263,232.101 164.471 C 232.181 164.679,232.127 164.848,231.982 164.848 C 231.836 164.848,231.717 165.173,231.717 165.569 C 231.717 166.238,231.754 166.215,232.222 165.252 C 232.857 163.946,232.802 163.248,232.117 163.932 M231.038 167.297 C 230.776 167.450,230.643 167.708,230.743 167.870 C 230.854 168.050,230.800 168.087,230.602 167.965 C 230.425 167.855,230.103 167.912,229.887 168.091 C 229.276 168.598,229.426 168.945,230.101 168.583 C 230.434 168.405,230.751 168.287,230.805 168.320 C 230.859 168.354,231.064 168.072,231.260 167.693 C 231.457 167.314,231.595 167.007,231.567 167.012 C 231.538 167.016,231.300 167.145,231.038 167.297 M230.049 169.005 C 229.867 169.225,229.791 169.522,229.880 169.667 C 229.969 169.811,229.919 170.005,229.769 170.098 C 229.618 170.191,229.499 170.412,229.504 170.588 C 229.508 170.765,229.686 170.679,229.899 170.398 C 230.112 170.117,230.214 169.770,230.125 169.627 C 230.037 169.484,230.128 169.266,230.328 169.143 C 230.528 169.019,230.621 168.848,230.536 168.762 C 230.450 168.677,230.231 168.786,230.049 169.005 M228.754 171.464 C 228.569 171.665,228.418 171.941,228.418 172.077 C 228.418 172.213,228.236 172.476,228.013 172.660 C 227.791 172.844,227.609 173.126,227.609 173.285 C 227.609 173.444,227.988 173.060,228.450 172.431 C 229.256 171.335,229.455 170.703,228.754 171.464 M227.223 171.823 C 227.142 171.955,227.044 172.500,227.005 173.034 C 226.967 173.569,226.845 174.006,226.734 174.006 C 226.623 174.006,226.532 174.203,226.532 174.444 C 226.532 174.810,226.600 174.824,226.955 174.530 C 227.187 174.337,227.322 173.965,227.253 173.704 C 227.185 173.443,227.358 173.022,227.639 172.768 C 227.919 172.515,228.148 172.144,228.148 171.945 C 228.148 171.540,227.455 171.449,227.223 171.823 M225.628 175.737 C 225.360 176.146,224.822 176.475,224.244 176.583 C 223.725 176.681,223.300 176.877,223.300 177.019 C 223.300 177.367,222.600 178.047,222.241 178.047 C 221.913 178.047,221.889 179.000,222.199 179.792 C 222.404 180.316,222.412 180.315,222.709 179.760 C 222.875 179.449,222.947 179.131,222.868 179.052 C 222.790 178.974,222.873 178.818,223.054 178.706 C 223.284 178.564,223.314 178.617,223.155 178.881 C 222.961 179.203,222.994 179.204,223.383 178.890 C 223.633 178.686,223.838 178.353,223.838 178.149 C 223.838 177.945,223.945 177.778,224.075 177.778 C 224.382 177.778,226.363 175.364,226.195 175.196 C 226.124 175.125,225.869 175.369,225.628 175.737 M221.304 180.875 C 221.062 181.246,220.710 181.549,220.522 181.549 C 220.335 181.549,220.163 181.804,220.139 182.115 C 220.104 182.583,220.257 182.500,221.014 181.644 C 221.842 180.706,222.134 180.202,221.849 180.202 C 221.792 180.202,221.547 180.505,221.304 180.875 M216.309 186.114 C 216.094 186.250,215.791 186.290,215.636 186.202 C 215.481 186.114,215.434 186.132,215.533 186.242 C 215.727 186.458,215.029 187.253,214.272 187.676 C 214.014 187.821,213.909 188.003,214.039 188.082 C 214.170 188.160,214.879 187.692,215.616 187.042 C 216.903 185.904,217.139 185.590,216.309 186.114 M211.773 188.545 C 211.690 188.771,211.311 189.255,210.929 189.621 C 210.323 190.202,210.295 190.298,210.711 190.382 C 211.137 190.469,211.123 190.535,210.577 191.012 L 209.966 191.546 210.578 191.249 C 210.914 191.085,211.337 190.715,211.518 190.425 C 211.699 190.136,211.952 189.899,212.080 189.899 C 212.208 189.899,212.673 189.596,213.113 189.226 C 213.653 188.771,213.775 188.552,213.489 188.552 C 213.255 188.552,213.064 188.439,213.064 188.300 C 213.064 187.885,211.936 188.099,211.773 188.545 " stroke="none" fill="#e08615" fill-rule="evenodd"></path><path id="path6" d="M239.356 62.755 C 239.796 62.933,239.909 63.186,239.857 63.883 C 239.698 66.046,239.166 68.686,238.667 69.785 C 238.369 70.440,238.124 71.251,238.120 71.586 C 238.117 71.921,237.872 73.070,237.576 74.139 C 236.600 77.659,237.043 79.695,239.362 82.357 C 240.620 83.801,241.435 83.918,240.298 82.492 C 237.328 78.765,237.320 77.935,240.164 67.609 C 240.988 64.617,241.242 62.761,240.826 62.761 C 240.668 62.761,240.539 62.891,240.539 63.050 C 240.539 63.208,240.348 63.148,240.115 62.915 C 239.883 62.682,239.489 62.499,239.240 62.509 C 238.896 62.522,238.924 62.581,239.356 62.755 M259.798 62.761 C 259.057 62.863,258.741 62.965,259.096 62.988 C 259.888 63.040,259.805 65.444,258.904 68.600 C 258.375 70.451,257.984 71.943,256.414 78.114 C 254.594 85.268,254.485 85.431,251.378 85.589 C 248.134 85.754,248.145 85.745,249.413 87.185 C 250.013 87.868,250.505 88.601,250.505 88.815 C 250.505 89.176,247.426 100.808,245.780 106.667 C 244.394 111.600,244.075 112.756,243.109 116.364 C 242.004 120.491,241.550 121.308,240.292 121.433 C 237.868 121.672,236.889 118.977,238.234 115.766 C 238.907 114.159,238.811 113.396,238.057 114.356 C 237.432 115.150,236.948 119.293,237.353 120.387 C 238.258 122.833,242.038 122.616,242.695 120.080 C 242.860 119.444,243.122 118.559,243.277 118.114 C 243.433 117.670,243.728 116.478,243.934 115.465 C 244.139 114.452,244.391 113.487,244.494 113.320 C 244.662 113.049,245.121 111.460,246.302 107.071 C 246.501 106.330,246.991 104.633,247.391 103.300 C 247.791 101.966,248.479 99.421,248.920 97.643 C 249.361 95.865,250.029 93.502,250.405 92.391 C 250.845 91.086,251.086 89.779,251.086 88.701 C 251.084 86.816,251.202 86.725,254.136 86.326 C 256.657 85.983,257.576 84.811,258.566 80.673 C 259.389 77.231,259.916 75.454,260.501 74.156 C 260.781 73.535,261.010 72.899,261.010 72.744 C 261.010 72.589,261.253 72.311,261.549 72.126 C 261.942 71.880,262.101 71.462,262.138 70.575 C 262.168 69.837,262.254 70.259,262.357 71.650 L 262.526 73.939 262.607 71.380 C 262.743 67.126,262.905 69.222,263.142 78.270 L 263.366 86.869 263.333 76.152 C 263.312 69.353,263.201 65.364,263.030 65.242 C 262.718 65.020,262.689 64.380,262.970 63.931 C 263.104 63.717,262.983 63.667,262.584 63.771 C 262.080 63.903,262.024 63.837,262.166 63.275 C 262.325 62.646,262.318 62.642,261.929 63.164 C 261.589 63.618,261.490 63.640,261.283 63.305 C 261.125 63.049,261.152 62.838,261.361 62.705 C 261.538 62.592,261.562 62.517,261.414 62.538 C 261.266 62.559,260.539 62.659,259.798 62.761 M241.886 84.310 C 242.227 84.606,242.756 84.848,243.061 84.848 C 243.453 84.848,243.307 84.691,242.559 84.310 C 241.978 84.013,241.449 83.771,241.383 83.771 C 241.318 83.771,241.544 84.013,241.886 84.310 M244.971 87.050 C 244.863 87.395,244.555 87.958,244.287 88.301 C 243.987 88.686,243.730 89.635,243.617 90.781 C 243.489 92.085,243.284 92.774,242.929 93.094 C 242.554 93.434,242.424 93.926,242.424 95.008 C 242.424 95.997,242.211 96.915,241.760 97.868 C 241.288 98.866,241.102 99.707,241.114 100.781 C 241.124 101.611,240.974 102.578,240.781 102.929 C 240.360 103.697,240.345 103.765,239.954 106.667 C 239.741 108.242,239.496 109.082,239.168 109.360 C 238.715 109.743,238.180 111.611,238.358 112.189 C 238.403 112.337,238.479 112.640,238.526 112.862 C 238.573 113.084,238.631 113.327,238.655 113.401 C 238.679 113.475,238.863 112.869,239.063 112.054 C 240.092 107.877,240.340 106.932,240.826 105.320 C 241.117 104.357,241.353 103.201,241.351 102.752 C 241.349 102.303,241.533 101.273,241.762 100.463 C 241.990 99.653,242.400 97.960,242.673 96.700 C 243.538 92.709,244.053 90.696,244.733 88.646 C 245.097 87.549,245.343 86.600,245.281 86.538 C 245.218 86.475,245.079 86.706,244.971 87.050 M194.747 105.556 C 192.280 106.534,190.447 107.522,188.648 108.845 C 187.632 109.592,186.518 110.408,186.172 110.657 C 185.826 110.907,184.842 111.657,183.984 112.323 C 183.126 112.990,181.856 113.960,181.160 114.478 C 177.336 117.330,171.210 123.461,170.436 125.212 C 169.267 127.854,169.960 130.647,172.383 133.056 C 176.243 136.897,180.598 134.990,191.222 124.809 C 192.791 123.306,194.537 121.832,195.102 121.534 C 195.948 121.088,197.710 118.941,197.710 118.357 C 197.710 118.278,197.990 117.827,198.332 117.356 C 200.138 114.864,200.367 105.880,198.641 105.218 C 197.837 104.909,195.971 105.071,194.747 105.556 M203.983 108.148 C 203.985 108.889,204.037 109.160,204.099 108.751 C 204.161 108.341,204.159 107.735,204.095 107.404 C 204.031 107.072,203.981 107.407,203.983 108.148 M196.857 108.915 C 196.946 109.381,196.256 111.161,194.931 113.887 C 194.470 114.837,194.426 115.141,194.692 115.567 C 195.174 116.338,195.110 116.645,194.039 118.680 C 190.489 125.427,180.939 132.933,177.515 131.667 C 177.178 131.542,176.159 131.467,175.250 131.500 C 172.485 131.600,171.462 129.806,172.434 126.562 C 172.933 124.896,178.783 119.022,182.556 116.399 C 183.036 116.066,184.066 115.247,184.845 114.579 C 189.659 110.459,196.533 107.217,196.857 108.915 M220.606 112.701 C 218.923 113.370,214.833 115.598,214.141 116.223 C 213.771 116.558,212.559 117.482,211.448 118.277 C 210.337 119.072,208.163 120.750,206.618 122.007 C 195.710 130.881,193.506 134.305,195.806 138.807 C 199.171 145.391,204.552 143.786,215.892 132.813 C 217.406 131.349,219.146 129.938,219.864 129.592 C 220.567 129.253,221.373 128.684,221.654 128.327 C 221.935 127.969,222.286 127.677,222.434 127.677 C 222.582 127.677,222.781 127.364,222.877 126.981 C 222.973 126.598,223.325 125.841,223.660 125.297 C 224.266 124.313,224.881 122.498,225.433 120.063 C 225.870 118.136,225.814 113.272,225.351 112.888 C 224.755 112.393,221.686 112.273,220.606 112.701 M222.438 115.340 C 222.955 115.857,222.814 116.969,222.096 118.025 C 220.840 119.873,220.487 121.114,220.880 122.302 C 221.898 125.387,212.771 135.666,205.833 139.249 C 204.793 139.786,198.406 139.340,197.817 138.689 C 197.069 137.862,197.012 135.727,197.695 134.045 C 198.399 132.311,204.854 125.934,208.183 123.684 C 208.769 123.287,209.667 122.581,210.178 122.113 C 210.689 121.646,211.638 120.929,212.288 120.521 C 212.937 120.112,213.892 119.441,214.411 119.029 C 215.191 118.409,221.475 115.085,221.966 115.033 C 222.048 115.024,222.260 115.162,222.438 115.340 M167.617 121.279 C 167.158 121.873,166.947 122.444,167.387 121.901 C 167.621 121.614,167.963 121.282,168.148 121.165 C 168.368 121.025,168.380 120.950,168.181 120.947 C 168.014 120.945,167.760 121.094,167.617 121.279 M236.874 124.157 C 235.500 124.741,232.468 129.899,232.033 132.391 C 231.646 134.602,229.932 138.685,228.414 141.010 C 225.583 145.347,229.430 145.253,234.661 140.857 C 235.354 140.275,236.033 139.798,236.169 139.798 C 236.858 139.798,237.723 138.604,239.053 135.819 C 239.284 135.334,239.713 134.697,240.006 134.405 C 240.299 134.112,240.539 133.707,240.539 133.504 C 240.539 133.302,240.793 132.813,241.104 132.418 C 243.979 128.763,240.771 122.498,236.874 124.157 M239.195 125.701 C 242.430 127.612,239.012 136.661,233.665 140.340 C 231.158 142.065,230.976 140.866,232.744 134.279 C 234.779 126.694,236.654 124.200,239.195 125.701 M224.628 140.810 C 223.675 141.521,222.532 142.334,222.088 142.615 C 217.686 145.403,208.878 153.085,207.219 155.583 C 203.826 160.693,209.025 167.576,214.538 165.273 C 216.975 164.255,221.465 160.764,225.884 156.452 C 227.527 154.849,229.257 153.402,229.728 153.238 C 230.199 153.074,230.720 152.680,230.886 152.362 C 231.052 152.044,231.595 151.166,232.092 150.411 C 232.733 149.436,232.968 148.802,232.901 148.227 C 232.745 146.888,232.580 146.801,230.185 146.801 C 228.803 146.801,227.574 146.647,226.978 146.397 C 226.446 146.175,225.552 145.989,224.992 145.985 C 223.825 145.975,223.030 145.483,223.030 144.771 C 223.030 144.271,224.765 142.492,225.251 142.492 C 225.732 142.492,227.076 140.753,227.005 140.223 C 226.889 139.351,226.429 139.464,224.628 140.810 M223.652 147.352 C 224.887 147.591,225.280 147.791,225.514 148.305 C 225.738 148.798,226.022 148.956,226.680 148.956 C 227.158 148.956,227.835 149.187,228.184 149.470 L 228.818 149.983 228.008 151.018 C 227.563 151.588,227.019 152.405,226.799 152.833 C 224.464 157.388,215.327 163.510,212.845 162.182 C 212.439 161.965,211.927 161.957,211.044 162.155 C 208.299 162.770,207.203 159.840,209.164 157.134 C 209.686 156.414,210.349 155.457,210.638 155.008 C 212.369 152.313,220.040 146.643,221.549 146.942 C 221.845 147.001,222.792 147.186,223.652 147.352 " stroke="none" fill="#c85ca4" fill-rule="evenodd"></path><path id="path7" d="M252.165 99.271 C 251.714 100.261,251.800 100.473,252.288 99.572 C 252.516 99.152,252.652 98.757,252.590 98.696 C 252.528 98.634,252.337 98.893,252.165 99.271 M196.162 100.657 C 196.421 100.725,196.845 100.725,197.104 100.657 C 197.364 100.589,197.152 100.534,196.633 100.534 C 196.114 100.534,195.902 100.589,196.162 100.657 M226.143 108.872 C 226.420 109.239,226.803 109.540,226.993 109.540 C 227.454 109.540,227.464 109.553,226.490 108.833 L 225.640 108.204 226.143 108.872 M235.734 113.278 C 235.283 114.268,235.369 114.479,235.857 113.579 C 236.085 113.158,236.221 112.764,236.159 112.702 C 236.098 112.641,235.906 112.900,235.734 113.278 M229.845 115.286 C 229.845 116.101,229.896 116.434,229.957 116.027 C 230.019 115.620,230.019 114.953,229.957 114.545 C 229.896 114.138,229.845 114.471,229.845 115.286 M200.734 118.463 L 200.120 119.461 200.801 118.706 C 201.175 118.290,201.481 117.835,201.481 117.695 C 201.481 117.299,201.391 117.393,200.734 118.463 M198.299 121.825 C 198.142 122.015,197.673 122.197,197.256 122.231 C 195.992 122.335,194.860 122.808,194.202 123.508 C 193.459 124.299,193.422 124.256,195.286 124.760 C 197.084 125.245,197.207 125.626,196.257 127.773 C 195.888 128.609,195.641 129.293,195.710 129.293 C 195.938 129.293,197.694 125.384,197.770 124.706 C 197.811 124.340,198.027 123.880,198.249 123.684 C 198.471 123.488,198.502 123.404,198.316 123.498 C 197.835 123.741,197.889 122.808,198.399 122.080 C 198.847 121.440,198.774 121.253,198.299 121.825 M166.451 122.438 C 166.096 122.817,165.499 123.273,165.125 123.452 C 164.751 123.632,164.444 123.958,164.444 124.179 C 164.444 124.399,164.293 124.594,164.108 124.613 C 163.923 124.631,163.643 124.662,163.486 124.680 C 163.329 124.699,163.287 124.854,163.393 125.025 C 163.510 125.215,163.467 125.263,163.281 125.148 C 163.110 125.042,162.446 125.477,161.758 126.146 C 161.088 126.798,160.539 127.267,160.539 127.188 C 160.539 126.832,159.190 128.357,159.171 128.734 C 159.155 129.040,159.110 129.059,159.007 128.802 C 158.901 128.536,158.701 128.599,158.224 129.048 C 157.784 129.461,157.665 129.749,157.844 129.965 C 158.024 130.181,157.984 130.281,157.718 130.281 C 157.505 130.281,157.393 130.180,157.469 130.056 C 157.741 129.615,157.289 129.843,156.503 130.543 C 156.064 130.934,155.782 131.389,155.876 131.553 C 155.969 131.717,155.942 131.758,155.816 131.643 C 155.381 131.247,152.432 134.453,152.790 134.932 C 153.049 135.279,153.040 135.296,152.740 135.029 C 152.298 134.636,151.264 135.082,151.549 135.543 C 151.660 135.722,151.610 135.765,151.424 135.650 C 151.254 135.545,150.808 135.766,150.429 136.146 C 150.051 136.524,149.414 137.011,149.013 137.229 C 148.611 137.447,147.980 137.883,147.609 138.197 C 147.239 138.510,147.106 138.677,147.314 138.568 C 147.572 138.431,147.628 138.473,147.489 138.697 C 147.377 138.878,147.146 138.973,146.975 138.907 C 146.588 138.759,145.958 139.396,146.211 139.678 C 146.314 139.791,146.260 139.806,146.093 139.710 C 145.717 139.496,143.781 140.989,144.049 141.286 C 144.155 141.404,144.039 141.427,143.791 141.338 C 143.335 141.175,142.652 141.716,142.898 142.045 C 142.971 142.142,142.954 142.166,142.860 142.097 C 142.577 141.888,141.657 142.500,141.831 142.781 C 141.920 142.926,141.878 143.010,141.737 142.970 C 141.321 142.849,137.897 145.751,138.089 146.061 C 138.186 146.218,138.143 146.271,137.994 146.179 C 137.641 145.960,135.973 147.190,136.233 147.477 C 136.342 147.597,136.274 147.605,136.082 147.495 C 135.319 147.055,133.768 149.502,134.408 150.136 C 134.633 150.359,134.665 150.315,134.533 149.966 C 134.380 149.565,134.516 149.495,135.446 149.495 C 136.047 149.495,136.636 149.343,136.754 149.157 C 136.873 148.971,137.424 148.480,137.980 148.066 C 138.535 147.651,138.990 147.132,138.990 146.911 C 138.990 146.689,139.141 146.528,139.327 146.552 C 140.038 146.644,140.280 146.512,140.469 145.926 C 140.576 145.593,140.649 145.223,140.631 145.105 C 140.613 144.987,140.751 144.921,140.938 144.958 C 141.545 145.078,142.916 144.168,143.257 143.420 C 143.440 143.019,143.663 142.765,143.754 142.856 C 143.844 142.947,144.218 142.690,144.584 142.285 C 144.949 141.880,145.160 141.710,145.053 141.908 C 144.906 142.176,145.063 142.160,145.675 141.843 C 146.125 141.611,146.572 141.175,146.667 140.874 C 146.762 140.574,146.958 140.402,147.102 140.491 C 147.480 140.724,148.148 140.088,148.148 139.496 C 148.148 139.217,148.239 139.004,148.350 139.022 C 148.996 139.124,149.555 138.926,149.961 138.451 C 150.215 138.155,150.642 137.912,150.910 137.912 C 151.178 137.912,151.469 137.726,151.556 137.498 C 151.644 137.271,152.064 136.904,152.491 136.683 C 152.948 136.447,153.266 136.064,153.266 135.751 C 153.266 135.458,153.447 135.219,153.670 135.219 C 153.892 135.219,154.074 135.051,154.074 134.846 C 154.074 134.641,154.368 134.280,154.727 134.045 C 155.086 133.810,155.461 133.363,155.559 133.052 C 155.670 132.704,155.888 132.544,156.127 132.635 C 156.373 132.729,156.609 132.538,156.770 132.116 C 156.909 131.749,157.209 131.448,157.434 131.448 C 157.660 131.448,157.845 131.314,157.845 131.150 C 157.845 130.986,158.013 130.916,158.218 130.995 C 158.729 131.190,160.177 129.680,159.685 129.465 C 159.419 129.349,159.431 129.318,159.731 129.344 C 160.425 129.405,161.616 128.786,161.616 128.365 C 161.616 128.144,161.949 127.782,162.357 127.561 C 162.764 127.340,162.939 127.155,162.745 127.149 C 162.551 127.143,162.469 127.015,162.562 126.864 C 162.655 126.714,162.833 126.654,162.959 126.732 C 163.588 127.121,164.636 126.323,164.464 125.585 C 164.370 125.180,164.388 124.986,164.504 125.154 C 164.619 125.322,165.075 125.443,165.516 125.423 C 166.247 125.390,166.373 125.520,166.922 126.869 L 167.526 128.350 167.534 127.289 C 167.538 126.705,167.690 125.510,167.871 124.633 C 168.185 123.117,168.172 123.015,167.614 122.563 C 167.291 122.301,167.102 122.011,167.194 121.919 C 167.287 121.826,167.303 121.751,167.230 121.751 C 167.157 121.751,166.807 122.060,166.451 122.438 M230.592 125.094 C 230.377 125.354,230.366 125.529,230.559 125.648 C 230.715 125.744,230.851 125.786,230.862 125.740 C 231.124 124.684,231.060 124.530,230.592 125.094 M223.198 130.064 C 222.903 130.390,222.212 130.621,221.226 130.723 C 218.747 130.979,218.133 131.867,220.233 132.160 C 221.105 132.282,221.960 132.368,222.134 132.352 C 222.307 132.336,222.384 132.491,222.305 132.697 C 222.227 132.903,222.285 133.221,222.435 133.404 C 222.758 133.799,222.987 136.836,222.694 136.835 C 222.582 136.835,222.492 137.105,222.492 137.435 L 222.492 138.036 223.131 137.368 C 223.482 137.001,223.678 136.579,223.565 136.431 C 223.287 136.066,223.102 133.884,223.362 134.045 C 223.476 134.116,223.569 134.651,223.569 135.235 C 223.569 135.819,223.663 136.296,223.779 136.296 C 223.894 136.296,223.922 135.660,223.842 134.882 C 223.741 133.914,223.584 133.491,223.343 133.542 C 223.149 133.583,223.067 133.492,223.161 133.340 C 223.255 133.188,223.239 132.914,223.126 132.731 C 222.804 132.210,223.034 130.555,223.500 130.034 C 223.732 129.774,223.861 129.562,223.787 129.562 C 223.713 129.562,223.448 129.788,223.198 130.064 M192.354 132.951 C 191.695 133.789,191.646 134.539,192.189 135.488 C 192.569 136.153,192.574 136.147,192.583 135.034 C 192.588 134.414,192.717 133.579,192.869 133.179 C 193.250 132.179,193.036 132.085,192.354 132.951 M140.533 144.132 C 140.271 144.285,140.126 144.524,140.212 144.663 C 140.298 144.802,140.161 144.916,139.907 144.916 C 139.479 144.916,139.481 144.876,139.933 144.377 C 140.201 144.081,140.553 143.842,140.715 143.847 C 140.877 143.851,140.795 143.980,140.533 144.132 M230.168 154.262 C 228.492 155.168,228.550 155.541,230.390 155.690 C 232.326 155.847,232.926 155.602,232.889 154.669 C 232.855 153.817,231.397 153.598,230.168 154.262 M232.731 156.162 C 232.743 156.752,233.258 157.144,233.262 156.566 C 233.264 156.232,233.145 155.960,232.997 155.960 C 232.848 155.960,232.729 156.051,232.731 156.162 M203.529 156.810 C 203.010 157.552,202.993 158.295,203.476 159.167 C 203.811 159.772,203.844 159.701,203.967 158.089 C 204.122 156.068,204.098 155.998,203.529 156.810 M228.819 172.126 C 228.726 172.276,228.551 172.338,228.429 172.263 C 228.308 172.188,228.076 172.287,227.914 172.483 C 227.436 173.058,228.335 172.928,228.862 172.346 C 229.108 172.074,229.237 171.852,229.149 171.852 C 229.060 171.852,228.912 171.975,228.819 172.126 M225.048 176.974 C 224.955 177.125,224.747 177.167,224.586 177.067 C 224.418 176.963,224.371 177.011,224.476 177.181 C 224.576 177.343,224.443 177.600,224.181 177.753 C 223.918 177.906,223.834 178.034,223.993 178.039 C 224.153 178.043,224.568 177.744,224.916 177.374 C 225.264 177.003,225.474 176.700,225.383 176.700 C 225.292 176.700,225.141 176.824,225.048 176.974 M134.225 178.990 C 134.226 179.879,134.277 180.210,134.337 179.726 C 134.397 179.242,134.395 178.514,134.334 178.110 C 134.272 177.705,134.223 178.101,134.225 178.990 M223.701 178.590 C 223.608 178.741,223.427 178.799,223.300 178.721 C 223.172 178.642,222.997 178.692,222.910 178.832 C 222.590 179.350,223.244 179.364,223.709 178.849 C 223.974 178.556,224.119 178.316,224.031 178.316 C 223.942 178.316,223.794 178.440,223.701 178.590 M221.414 181.414 C 220.760 182.081,220.285 182.626,220.359 182.626 C 220.433 182.626,221.029 182.081,221.684 181.414 C 222.338 180.747,222.813 180.202,222.738 180.202 C 222.664 180.202,222.068 180.747,221.414 181.414 M212.493 189.158 C 212.476 189.343,212.476 189.586,212.493 189.697 C 212.511 189.808,212.373 189.899,212.186 189.899 C 211.999 189.899,211.687 190.155,211.492 190.467 C 211.188 190.954,211.272 190.932,212.084 190.313 C 212.658 189.875,212.974 189.439,212.884 189.206 C 212.703 188.732,212.536 188.711,212.493 189.158 " stroke="none" fill="#c4641c" fill-rule="evenodd"></path><path id="path8" d="M234.546 73.039 C 234.632 73.370,234.588 73.552,234.444 73.463 C 234.304 73.376,234.190 73.525,234.190 73.794 C 234.190 74.062,234.320 74.232,234.479 74.171 C 234.836 74.034,234.986 72.458,234.642 72.458 C 234.506 72.458,234.462 72.719,234.546 73.039 M233.805 76.155 C 233.805 76.326,233.926 76.541,234.074 76.633 C 234.434 76.855,234.416 77.931,234.039 78.758 C 233.654 79.602,233.956 80.679,234.370 79.941 C 234.842 79.101,234.777 76.817,234.268 76.307 C 234.005 76.044,233.805 75.979,233.805 76.155 M261.023 88.355 C 260.512 88.475,259.953 88.766,259.781 89.001 C 259.555 89.310,259.014 89.428,257.815 89.428 C 256.892 89.428,256.162 89.547,256.162 89.697 C 256.162 89.845,256.820 89.966,257.626 89.966 C 258.431 89.966,259.400 90.085,259.780 90.229 C 260.368 90.452,260.471 90.417,260.471 89.993 C 260.471 89.329,261.153 88.793,261.787 88.959 C 262.535 89.154,263.160 88.705,262.626 88.354 C 262.404 88.208,262.162 88.100,262.088 88.113 C 262.013 88.125,261.535 88.234,261.023 88.355 M253.805 89.348 C 253.506 89.458,253.297 91.044,253.581 91.044 C 253.643 91.044,253.897 91.122,254.146 91.218 C 254.545 91.370,254.556 91.323,254.246 90.826 C 253.787 90.091,254.161 89.711,254.674 90.390 C 254.890 90.676,255.068 90.788,255.070 90.640 C 255.074 90.161,254.152 89.219,253.805 89.348 M241.355 90.707 C 241.350 91.040,241.226 91.313,241.077 91.313 C 240.929 91.313,240.808 91.434,240.808 91.582 C 240.808 91.999,241.614 91.901,241.782 91.464 C 241.864 91.251,241.803 90.857,241.647 90.589 C 241.387 90.143,241.362 90.153,241.355 90.707 M253.230 93.006 C 253.213 93.271,253.022 93.756,252.806 94.086 C 252.338 94.801,252.360 95.802,252.844 95.802 C 253.105 95.802,253.115 95.712,252.887 95.437 C 252.645 95.146,252.683 95.110,253.070 95.258 C 253.405 95.387,253.496 95.347,253.362 95.130 C 253.255 94.957,253.308 94.815,253.481 94.815 C 253.654 94.815,253.723 94.627,253.635 94.397 C 253.543 94.157,253.588 94.049,253.740 94.143 C 253.887 94.234,254.007 94.129,254.007 93.910 C 254.007 93.691,254.080 93.320,254.170 93.086 C 254.262 92.848,254.195 92.660,254.020 92.660 C 253.847 92.660,253.775 92.773,253.861 92.911 C 253.946 93.049,253.902 93.232,253.762 93.318 C 253.623 93.404,253.453 93.261,253.385 93.000 C 253.268 92.552,253.259 92.552,253.230 93.006 M251.852 98.418 C 251.852 98.807,251.980 99.125,252.137 99.125 C 252.294 99.125,252.354 99.014,252.270 98.878 C 252.186 98.743,252.253 98.587,252.418 98.532 C 252.608 98.468,252.559 98.299,252.285 98.072 C 251.906 97.756,251.852 97.799,251.852 98.418 M249.943 102.250 C 249.696 102.547,249.674 102.799,249.867 103.104 C 250.286 103.769,250.754 103.819,250.587 103.180 C 250.488 102.802,250.571 102.626,250.849 102.626 C 251.073 102.626,251.316 102.470,251.389 102.278 C 251.585 101.768,250.364 101.744,249.943 102.250 M238.396 102.873 C 238.188 103.262,238.184 103.434,238.383 103.434 C 238.709 103.434,239.065 102.679,238.843 102.457 C 238.763 102.377,238.562 102.564,238.396 102.873 M249.354 106.917 C 248.910 107.388,248.722 107.776,248.888 107.878 C 249.042 107.973,249.097 108.164,249.012 108.301 C 248.927 108.439,248.998 108.552,249.171 108.552 C 249.344 108.552,249.415 108.370,249.330 108.148 C 249.245 107.926,249.300 107.744,249.452 107.744 C 249.604 107.744,249.654 107.623,249.562 107.475 C 249.471 107.327,249.544 107.205,249.726 107.205 C 249.908 107.205,249.976 107.126,249.879 107.028 C 249.781 106.931,249.837 106.688,250.002 106.489 C 250.554 105.824,250.108 106.119,249.354 106.917 M237.430 107.187 C 237.515 107.325,237.448 107.522,237.282 107.624 C 237.067 107.757,237.083 107.875,237.338 108.033 C 237.550 108.164,237.780 108.123,237.901 107.932 C 238.239 107.401,238.142 106.936,237.695 106.936 C 237.464 106.936,237.344 107.049,237.430 107.187 M248.217 110.441 C 248.308 110.587,248.194 110.707,247.964 110.707 C 247.682 110.707,247.576 110.905,247.638 111.313 C 247.753 112.070,248.039 112.013,248.490 111.146 C 248.782 110.582,248.775 110.452,248.445 110.325 C 248.226 110.241,248.125 110.292,248.217 110.441 " stroke="none" fill="#346c78" fill-rule="evenodd"></path></g></svg>