<?xml version="1.0"?>
<svg xmlns="http://www.w3.org/2000/svg" width="26" height="26" viewBox="0 0 26 26" fill="currentColor">
    <path d="M 13 0 C 7.228 0 2.317 3.784 0.625 9 L 2.75 9 C 3.033 8.282 3.3925 7.60475 3.8125 6.96875 C 3.8745 6.98075 3.935 7 4 7 L 5.875 7 C 5.676 7.634 5.51 8.309 5.375 9 L 7.4375 9 C 7.5925 8.301 7.773 7.624 8 7 L 18 7 C 18.227 7.624 18.4075 8.301 18.5625 9 L 20.625 9 C 20.49 8.309 20.324 7.634 20.125 7 L 22 7 C 22.065 7 22.1245 6.98075 22.1875 6.96875 C 22.6055 7.60475 22.967 8.282 23.25 9 L 25.375 9 C 23.684 3.784 18.772 0 13 0 z M 13 2 C 14.551 2 15.9835 3.154 17.0625 5 L 8.9375 5 C 10.0165 3.154 11.449 2 13 2 z M 7.5 3.46875 C 7.192 3.93775 6.91425 4.457 6.65625 5 L 5.46875 5 C 6.08575 4.419 6.762 3.89675 7.5 3.46875 z M 18.5 3.46875 C 19.24 3.89675 19.91425 4.419 20.53125 5 L 19.34375 5 C 19.08575 4.457 18.809 3.93775 18.5 3.46875 z M 0.25 10.90625 C 0.2115 10.923875 0.18225 10.9675 0.15625 11 C 0.10425 11.065 0.095 11.14475 0.125 11.21875 L 1.6875 15 C 1.7275 15.095 1.8205 15.15625 1.9375 15.15625 L 2.78125 15.15625 C 2.89225 15.15625 2.98925 15.091 3.03125 15 L 3.875 13.21875 C 3.95 13.05275 4.02075 12.8735 4.09375 12.6875 C 4.15975 12.8565 4.2355 13.0095 4.3125 13.1875 L 5.09375 15 C 5.13375 15.093 5.23075 15.15625 5.34375 15.15625 L 6.21875 15.15625 C 6.33175 15.15625 6.42775 15.094 6.46875 15 L 8.125 11.21875 C 8.157 11.14375 8.14675 11.068 8.09375 11 C 8.04175 10.935 7.966 10.90625 7.875 10.90625 L 6.9375 10.90625 C 6.8205 10.90625 6.7255 10.9645 6.6875 11.0625 L 5.9375 12.96875 C 5.8725 13.13775 5.83025 13.26425 5.78125 13.40625 C 5.72225 13.25625 5.66575 13.1075 5.59375 12.9375 L 4.78125 11.0625 C 4.74025 10.9685 4.64625 10.90625 4.53125 10.90625 L 3.75 10.90625 C 3.637 10.90625 3.50975 10.9695 3.46875 11.0625 L 2.625 12.96875 C 2.556 13.13175 2.4975 13.2915 2.4375 13.4375 C 2.3885 13.2915 2.33825 13.13075 2.28125 12.96875 L 1.59375 11.0625 C 1.55775 10.9625 1.46475 10.90625 1.34375 10.90625 L 0.375 10.90625 C 0.33 10.90625 0.2885 10.888625 0.25 10.90625 z M 9.1875 10.90625 C 9.148875 10.924 9.0885 10.968 9.0625 11 C 9.0105 11.065 9.00125 11.14475 9.03125 11.21875 L 10.59375 15 C 10.63375 15.095 10.72775 15.15625 10.84375 15.15625 L 11.71875 15.15625 C 11.83075 15.15625 11.92675 15.091 11.96875 15 L 12.8125 13.21875 C 12.8875 13.05275 12.95825 12.8735 13.03125 12.6875 C 13.09725 12.8565 13.14075 13.0095 13.21875 13.1875 L 14.03125 15 C 14.07225 15.093 14.16825 15.15625 14.28125 15.15625 L 15.125 15.15625 C 15.237 15.15625 15.334 15.094 15.375 15 L 17.0625 11.21875 C 17.0955 11.14375 17.08425 11.068 17.03125 11 C 16.98125 10.935 16.87325 10.90625 16.78125 10.90625 L 15.875 10.90625 C 15.758 10.90625 15.63175 10.9645 15.59375 11.0625 L 14.875 12.96875 C 14.809 13.13775 14.7385 13.26425 14.6875 13.40625 C 14.6295 13.25625 14.571 13.1075 14.5 12.9375 L 13.71875 11.0625 C 13.67875 10.9685 13.5525 10.90625 13.4375 10.90625 L 12.65625 10.90625 C 12.54225 10.90625 12.44625 10.9695 12.40625 11.0625 L 11.5625 12.96875 C 11.4935 13.13175 11.434 13.2915 11.375 13.4375 C 11.324 13.2915 11.27575 13.13075 11.21875 12.96875 L 10.53125 11.0625 C 10.49525 10.9625 10.371 10.90625 10.25 10.90625 L 9.3125 10.90625 C 9.268 10.90625 9.226125 10.8885 9.1875 10.90625 z M 18.09375 10.90625 C 18.055 10.923875 18.026 10.9675 18 11 C 17.948 11.065 17.93975 11.14475 17.96875 11.21875 L 19.53125 15 C 19.57125 15.095 19.66425 15.15625 19.78125 15.15625 L 20.625 15.15625 C 20.736 15.15625 20.833 15.091 20.875 15 L 21.71875 13.21875 C 21.79375 13.05275 21.8645 12.8735 21.9375 12.6875 C 22.0035 12.8565 22.07825 13.0095 22.15625 13.1875 L 22.9375 15 C 22.9775 15.093 23.0745 15.15625 23.1875 15.15625 L 24.0625 15.15625 C 24.1755 15.15625 24.2705 15.094 24.3125 15 L 25.96875 11.21875 C 26.00075 11.14375 25.9885 11.068 25.9375 11 C 25.8865 10.935 25.81075 10.90625 25.71875 10.90625 L 24.78125 10.90625 C 24.66325 10.90625 24.56825 10.9645 24.53125 11.0625 L 23.78125 12.96875 C 23.71625 13.13775 23.674 13.26425 23.625 13.40625 C 23.566 13.25625 23.5095 13.1075 23.4375 12.9375 L 22.625 11.0625 C 22.585 10.9685 22.49 10.90625 22.375 10.90625 L 21.5625 10.90625 C 21.4485 10.90625 21.3535 10.9695 21.3125 11.0625 L 20.46875 12.96875 C 20.39975 13.13175 20.34025 13.2915 20.28125 13.4375 C 20.23125 13.2915 20.182 13.13075 20.125 12.96875 L 19.4375 11.0625 C 19.4025 10.9625 19.3085 10.90625 19.1875 10.90625 L 18.21875 10.90625 C 18.17375 10.90625 18.1325 10.888625 18.09375 10.90625 z M 0.625 17 C 2.317 22.216 7.228 26 13 26 C 18.772 26 23.684 22.216 25.375 17 L 23.25 17 C 22.967 17.719 22.6065 18.39425 22.1875 19.03125 C 22.1255 19.01925 22.065 19 22 19 L 20.125 19 C 20.324 18.366 20.45875 17.691 20.59375 17 L 18.5625 17 C 18.4085 17.699 18.227 18.377 18 19 L 8 19 C 7.773 18.377 7.5925 17.699 7.4375 17 L 5.40625 17 C 5.54125 17.691 5.676 18.366 5.875 19 L 4 19 C 3.935 19 3.8745 19.01925 3.8125 19.03125 C 3.3935 18.39425 3.033 17.719 2.75 17 L 0.625 17 z M 5.46875 21 L 6.65625 21 C 6.91425 21.543 7.192 22.06325 7.5 22.53125 C 6.761 22.10325 6.08575 21.581 5.46875 21 z M 8.9375 21 L 17.0625 21 C 15.9845 22.846 14.551 24 13 24 C 11.449 24 10.0165 22.846 8.9375 21 z M 19.34375 21 L 20.53125 21 C 19.91325 21.581 19.239 22.10325 18.5 22.53125 C 18.809 22.06325 19.08575 21.543 19.34375 21 z"/>
</svg>
